<svg xmlns="http://www.w3.org/2000/svg" xmlns:v="https://svgstorm.com"
viewBox = "0 0 850 995"
width="850"
height="995">
<g fill="None" fill-opacity="0.0" stroke="#F9F9F9" stroke-opacity="1.00" stroke-width="0.3"><path d="
M 0.00 995.00 
L 850.00 995.00
L 850.00 0.00
L 0.00 0.00
L 0.00 995.00
M 428.00 95.00 
C 441.88 97.94 439.70 118.04 439.00 130.00 C 438.30 141.96 441.66 161.86 437.22 174.22 C 432.78 186.58 412.98 183.42 411.67 170.33 C 410.36 157.23 411.97 137.20 411.00 125.00 C 410.03 112.80 411.49 91.51 428.00 95.00
M 206.00 199.00 
C 219.62 210.64 234.45 224.81 245.00 239.00
C 254.15 251.30 238.92 265.53 228.30 258.70 C 217.69 251.86 210.91 243.85 202.75 235.25 C 194.59 226.65 183.91 219.60 180.00 209.00
C 178.85 205.89 178.84 203.06 180.00 200.00
C 184.83 187.24 198.52 192.61 206.00 199.00
M 605.00 239.00 
C 615.32 225.12 629.77 211.31 643.00 200.00
C 649.72 194.25 662.22 187.09 668.75 197.25 C 675.28 207.40 664.87 217.85 658.25 224.25 C 651.63 230.65 645.67 238.63 638.25 244.25 C 630.83 249.86 625.55 261.08 615.00 261.00 C 604.44 260.92 598.69 247.48 605.00 239.00
M 646.00 409.00 
C 646.34 411.81 647.00 415.53 647.00 419.00
C 647.00 432.33 647.00 445.67 647.00 459.00
C 647.00 462.19 646.35 465.52 646.00 468.00
C 645.40 483.62 638.69 500.44 633.69 514.69 C 628.70 528.95 622.57 541.91 614.70 554.70 C 606.82 567.48 598.84 576.43 589.25 588.25 C 579.65 600.07 568.60 606.08 557.25 616.25 C 545.90 626.42 528.62 628.27 529.00 647.00 C 529.38 665.73 530.45 686.07 529.00 706.00 C 527.55 725.93 501.38 721.10 485.00 721.00 C 468.62 720.90 442.17 721.13 425.00 721.00 C 407.83 720.87 382.17 721.25 366.00 721.00 C 349.83 720.75 323.02 726.53 321.22 706.78 C 319.42 687.02 320.32 666.83 321.00 648.00 C 321.68 629.17 304.66 626.20 292.75 616.25 C 280.85 606.29 271.34 599.98 261.75 588.25 C 252.15 576.53 243.44 567.88 236.08 554.92 C 228.72 541.95 221.17 530.14 216.22 515.78 C 211.28 501.41 204.60 483.77 204.00 468.00
C 203.64 465.47 203.00 462.18 203.00 459.00
C 203.00 446.00 203.00 433.00 203.00 420.00
C 203.00 416.20 203.63 412.07 204.00 409.00
C 204.71 373.70 223.19 338.36 242.77 309.77 C 262.35 281.18 285.38 262.44 315.08 244.08 C 344.77 225.71 388.25 214.48 425.00 215.00 C 461.75 215.52 504.52 225.10 534.25 243.75 C 563.97 262.41 587.28 280.37 606.75 309.25 C 626.22 338.12 645.29 373.43 646.00 409.00
M 152.00 424.00 
C 172.44 424.00 175.38 449.51 155.00 451.00 C 134.62 452.49 117.38 452.49 97.00 451.00 C 76.62 449.51 79.57 424.00 100.00 424.00
C 116.32 422.42 135.75 422.43 152.00 424.00
M 750.00 424.00 
C 770.44 424.00 773.38 449.51 753.00 451.00 C 732.62 452.49 715.38 452.49 695.00 451.00 C 674.62 449.51 677.57 424.00 698.00 424.00
C 714.32 422.42 733.75 422.43 750.00 424.00
M 187.00 656.00 
C 197.14 644.13 209.18 632.10 221.00 622.00
C 229.57 614.68 240.51 611.17 246.75 622.25 C 253.00 633.33 241.24 640.33 234.75 647.75 C 228.26 655.17 221.43 662.37 213.75 668.75 C 206.07 675.13 199.96 687.03 187.98 683.02 C 175.99 679.01 180.06 664.12 187.00 656.00
M 629.00 622.00 
C 640.87 632.14 652.90 644.18 663.00 656.00
C 670.06 664.26 673.93 679.01 661.92 682.92 C 649.92 686.84 644.02 675.28 636.25 668.75 C 628.48 662.22 621.89 655.40 615.25 647.75 C 608.60 640.10 597.28 633.85 603.75 622.75 C 610.23 611.66 619.89 614.21 629.00 622.00
M 520.00 752.00 
C 526.45 754.38 531.16 764.95 527.22 772.22 C 523.29 779.50 513.60 782.62 504.00 781.00 C 494.40 779.38 483.10 781.66 473.00 781.00 C 462.90 780.34 451.31 781.21 441.00 781.00 C 430.69 780.79 419.27 780.91 409.00 781.00 C 398.73 781.09 388.07 780.51 378.00 781.00 C 367.93 781.49 355.61 779.83 346.00 781.00 C 336.39 782.17 327.29 780.30 323.23 772.77 C 319.17 765.24 322.01 755.63 330.25 752.25 C 338.49 748.86 352.56 753.35 362.00 752.00 C 371.44 750.65 383.00 752.47 393.00 752.00 C 403.00 751.53 414.81 751.97 425.00 752.00 C 435.19 752.03 445.81 751.39 456.00 752.00 C 466.19 752.61 478.03 750.49 488.00 752.00 C 497.97 753.51 510.70 748.57 520.00 752.00
M 520.00 812.00 
C 527.59 814.80 531.29 825.60 526.23 833.23 C 521.17 840.86 509.29 840.82 499.00 840.00 C 488.71 839.18 475.70 840.48 465.00 840.00 C 454.30 839.52 442.83 840.44 432.00 840.00 C 421.17 839.56 408.72 840.68 398.00 840.00 C 387.28 839.32 374.21 841.38 364.00 840.00 C 353.79 838.62 338.94 842.99 330.00 840.00 C 321.06 837.01 318.86 826.56 323.92 818.92 C 328.98 811.28 340.93 811.16 351.00 812.00 C 361.07 812.84 374.37 811.49 385.00 812.00 C 395.63 812.51 407.13 811.50 418.00 812.00 C 428.87 812.50 441.10 811.18 452.00 812.00 C 462.90 812.82 475.35 810.32 486.00 812.00 C 496.65 813.68 510.07 808.33 520.00 812.00
M 490.00 872.00 
C 497.81 874.88 501.92 887.43 495.25 894.25 C 488.57 901.06 476.58 900.77 466.00 900.00 C 455.42 899.23 441.85 900.81 431.00 900.00 C 420.15 899.19 406.58 901.38 396.00 900.00 C 385.42 898.62 369.77 902.94 360.33 899.67 C 350.89 896.40 348.56 884.97 354.75 877.75 C 360.95 870.54 373.57 871.32 384.00 872.00 C 394.43 872.68 408.09 871.06 419.00 872.00 C 429.91 872.94 443.10 870.18 454.00 872.00 C 464.90 873.82 479.73 868.21 490.00 872.00 Z"/>
</g>
<g fill="None" fill-opacity="0.0" stroke="#000000" stroke-opacity="1.00" stroke-width="0.3"><path d="
M 428.00 95.00 
C 411.49 91.51 410.03 112.80 411.00 125.00 C 411.97 137.20 410.36 157.23 411.67 170.33 C 412.98 183.42 432.78 186.58 437.22 174.22 C 441.66 161.86 438.30 141.96 439.00 130.00 C 439.70 118.04 441.88 97.94 428.00 95.00 Z"/>
</g>
<g fill="None" fill-opacity="0.0" stroke="#000000" stroke-opacity="1.00" stroke-width="0.3"><path d="
M 180.00 200.00 
C 179.49 202.21 179.51 206.79 180.00 209.00
C 183.91 219.60 194.59 226.65 202.75 235.25 C 210.91 243.85 217.69 251.86 228.30 258.70 C 238.92 265.53 254.15 251.30 245.00 239.00
C 233.10 225.34 218.94 211.94 206.00 199.00
C 198.52 192.61 184.83 187.24 180.00 200.00 Z"/>
</g>
<g fill="None" fill-opacity="0.0" stroke="#000000" stroke-opacity="1.00" stroke-width="0.3"><path d="
M 643.00 200.00 
C 630.33 212.67 616.56 225.73 605.00 239.00
C 598.69 247.48 604.44 260.92 615.00 261.00 C 625.55 261.08 630.83 249.86 638.25 244.25 C 645.67 238.63 651.63 230.65 658.25 224.25 C 664.87 217.85 675.28 207.40 668.75 197.25 C 662.22 187.09 649.72 194.25 643.00 200.00 Z"/>
</g>
<g fill="None" fill-opacity="0.0" stroke="#797979" stroke-opacity="1.00" stroke-width="0.3"><path d="
M 245.00 239.00 
C 234.45 224.81 219.62 210.64 206.00 199.00
C 218.94 211.94 233.10 225.34 245.00 239.00 Z"/>
</g>
<g fill="None" fill-opacity="0.0" stroke="#888888" stroke-opacity="1.00" stroke-width="0.3"><path d="
M 180.00 209.00 
C 179.51 206.79 179.49 202.21 180.00 200.00
C 178.84 203.06 178.85 205.89 180.00 209.00 Z"/>
</g>
<g fill="None" fill-opacity="0.0" stroke="#797979" stroke-opacity="1.00" stroke-width="0.3"><path d="
M 605.00 239.00 
C 616.56 225.73 630.33 212.67 643.00 200.00
C 629.77 211.31 615.32 225.12 605.00 239.00 Z"/>
</g>
<g fill="None" fill-opacity="0.0" stroke="#000000" stroke-opacity="1.00" stroke-width="0.3"><path d="
M 204.00 409.00 
C 203.93 412.72 203.29 417.01 203.00 420.00
C 203.00 433.00 203.00 446.00 203.00 459.00
C 203.23 461.38 203.88 464.98 204.00 468.00
C 204.60 483.77 211.28 501.41 216.22 515.78 C 221.17 530.14 228.72 541.95 236.08 554.92 C 243.44 567.88 252.15 576.53 261.75 588.25 C 271.34 599.98 280.85 606.29 292.75 616.25 C 304.66 626.20 321.68 629.17 321.00 648.00 C 320.32 666.83 319.42 687.02 321.22 706.78 C 323.02 726.53 349.83 720.75 366.00 721.00 C 382.17 721.25 407.83 720.87 425.00 721.00 C 442.17 721.13 468.62 720.90 485.00 721.00 C 501.38 721.10 527.55 725.93 529.00 706.00 C 530.45 686.07 529.38 665.73 529.00 647.00 C 528.62 628.27 545.90 626.42 557.25 616.25 C 568.60 606.08 579.65 600.07 589.25 588.25 C 598.84 576.43 606.82 567.48 614.70 554.70 C 622.57 541.91 628.70 528.95 633.69 514.69 C 638.69 500.44 645.40 483.62 646.00 468.00
C 646.12 464.98 646.78 461.32 647.00 459.00
C 647.00 445.67 647.00 432.33 647.00 419.00
C 646.74 416.27 646.07 412.39 646.00 409.00
C 645.29 373.43 626.22 338.12 606.75 309.25 C 587.28 280.37 563.97 262.41 534.25 243.75 C 504.52 225.10 461.75 215.52 425.00 215.00 C 388.25 214.48 344.77 225.71 315.08 244.08 C 285.38 262.44 262.35 281.18 242.77 309.77 C 223.19 338.36 204.71 373.70 204.00 409.00
M 618.00 413.00 
C 620.26 428.81 620.25 446.25 618.00 462.00
C 615.79 498.97 595.94 537.99 572.00 566.00
C 564.32 574.99 555.31 584.07 546.00 591.00
C 534.87 599.28 529.29 604.25 515.97 609.97 C 502.66 615.70 499.23 628.62 501.00 644.00 C 502.77 659.38 499.67 677.38 501.00 693.00
C 450.33 693.00 399.67 693.00 349.00 693.00
C 350.87 673.97 346.50 653.93 349.00 635.00 C 351.50 616.07 335.32 611.13 322.31 603.70 C 309.29 596.26 301.18 587.87 290.25 577.75 C 279.31 567.64 271.66 558.46 263.70 546.30 C 255.73 534.15 248.71 522.42 243.69 508.31 C 238.68 494.19 232.89 476.64 232.00 461.00
C 229.74 445.17 229.75 427.76 232.00 412.00
C 233.78 365.46 260.67 326.02 294.25 293.25 C 327.83 260.48 377.71 243.01 425.00 243.00 C 472.29 242.99 521.59 260.61 555.75 293.25 C 589.91 325.89 615.21 366.39 618.00 413.00 Z"/>
</g>
<g fill="None" fill-opacity="0.0" stroke="#F9F9F9" stroke-opacity="1.00" stroke-width="0.3"><path d="
M 232.00 412.00 
C 231.38 428.29 231.38 444.71 232.00 461.00
C 232.89 476.64 238.68 494.19 243.69 508.31 C 248.71 522.42 255.73 534.15 263.70 546.30 C 271.66 558.46 279.31 567.64 290.25 577.75 C 301.18 587.87 309.29 596.26 322.31 603.70 C 335.32 611.13 351.50 616.07 349.00 635.00 C 346.50 653.93 350.87 673.97 349.00 693.00
C 399.67 693.00 450.33 693.00 501.00 693.00
C 499.67 677.38 502.77 659.38 501.00 644.00 C 499.23 628.62 502.66 615.70 515.97 609.97 C 529.29 604.25 534.87 599.28 546.00 591.00
C 554.76 583.36 563.67 574.33 572.00 566.00
C 595.94 537.99 615.79 498.97 618.00 462.00
C 618.97 445.78 618.97 429.23 618.00 413.00
C 615.21 366.39 589.91 325.89 555.75 293.25 C 521.59 260.61 472.29 242.99 425.00 243.00 C 377.71 243.01 327.83 260.48 294.25 293.25 C 260.67 326.02 233.78 365.46 232.00 412.00
M 438.00 274.00 
C 450.68 275.23 466.43 279.42 478.67 283.33 C 490.92 287.24 501.96 293.78 512.75 300.25 C 523.53 306.73 531.44 314.47 540.75 323.25 C 550.07 332.03 555.58 340.44 562.92 351.08 C 570.25 361.72 574.00 373.00 579.78 385.22 C 585.56 397.45 583.79 414.75 588.00 428.00 C 592.21 441.25 576.70 458.96 565.25 447.75 C 553.81 436.53 561.90 418.75 557.00 406.00 C 552.10 393.25 549.50 381.09 542.08 369.92 C 534.67 358.75 528.51 351.59 519.25 341.75 C 509.98 331.92 501.93 327.88 490.92 320.08 C 479.92 312.28 466.81 310.86 454.00 306.00 C 441.18 301.14 423.17 309.15 413.70 295.30 C 404.23 281.46 424.52 272.70 438.00 274.00 Z"/>
</g>
<g fill="None" fill-opacity="0.0" stroke="#000000" stroke-opacity="1.00" stroke-width="0.3"><path d="
M 438.00 274.00 
C 424.52 272.70 404.23 281.46 413.70 295.30 C 423.17 309.15 441.18 301.14 454.00 306.00 C 466.81 310.86 479.92 312.28 490.92 320.08 C 501.93 327.88 509.98 331.92 519.25 341.75 C 528.51 351.59 534.67 358.75 542.08 369.92 C 549.50 381.09 552.10 393.25 557.00 406.00 C 561.90 418.75 553.81 436.53 565.25 447.75 C 576.70 458.96 592.21 441.25 588.00 428.00 C 583.79 414.75 585.56 397.45 579.78 385.22 C 574.00 373.00 570.25 361.72 562.92 351.08 C 555.58 340.44 550.07 332.03 540.75 323.25 C 531.44 314.47 523.53 306.73 512.75 300.25 C 501.96 293.78 490.92 287.24 478.67 283.33 C 466.43 279.42 450.68 275.23 438.00 274.00 Z"/>
</g>
<g fill="None" fill-opacity="0.0" stroke="#6C6C6C" stroke-opacity="1.00" stroke-width="0.3"><path d="
M 203.00 420.00 
C 203.29 417.01 203.93 412.72 204.00 409.00
C 203.63 412.07 203.00 416.20 203.00 420.00 Z"/>
</g>
<g fill="None" fill-opacity="0.0" stroke="#6C6C6C" stroke-opacity="1.00" stroke-width="0.3"><path d="
M 647.00 419.00 
C 647.00 415.53 646.34 411.81 646.00 409.00
C 646.07 412.39 646.74 416.27 647.00 419.00 Z"/>
</g>
<g fill="None" fill-opacity="0.0" stroke="#6C6C6C" stroke-opacity="1.00" stroke-width="0.3"><path d="
M 232.00 461.00 
C 231.38 444.71 231.38 428.29 232.00 412.00
C 229.75 427.76 229.74 445.17 232.00 461.00 Z"/>
</g>
<g fill="None" fill-opacity="0.0" stroke="#6A6A6A" stroke-opacity="1.00" stroke-width="0.3"><path d="
M 618.00 462.00 
C 620.25 446.25 620.26 428.81 618.00 413.00
C 618.97 429.23 618.97 445.78 618.00 462.00 Z"/>
</g>
<g fill="None" fill-opacity="0.0" stroke="#5C5C5C" stroke-opacity="1.00" stroke-width="0.3"><path d="
M 100.00 424.00 
C 117.33 424.00 134.67 424.00 152.00 424.00
C 135.75 422.43 116.32 422.42 100.00 424.00 Z"/>
</g>
<g fill="None" fill-opacity="0.0" stroke="#5C5C5C" stroke-opacity="1.00" stroke-width="0.3"><path d="
M 698.00 424.00 
C 715.33 424.00 732.67 424.00 750.00 424.00
C 733.75 422.43 714.32 422.42 698.00 424.00 Z"/>
</g>
<g fill="None" fill-opacity="0.0" stroke="#000000" stroke-opacity="1.00" stroke-width="0.3"><path d="
M 152.00 424.00 
C 134.67 424.00 117.33 424.00 100.00 424.00
C 79.57 424.00 76.62 449.51 97.00 451.00 C 117.38 452.49 134.62 452.49 155.00 451.00 C 175.38 449.51 172.44 424.00 152.00 424.00 Z"/>
</g>
<g fill="None" fill-opacity="0.0" stroke="#000000" stroke-opacity="1.00" stroke-width="0.3"><path d="
M 750.00 424.00 
C 732.67 424.00 715.33 424.00 698.00 424.00
C 677.57 424.00 674.62 449.51 695.00 451.00 C 715.38 452.49 732.62 452.49 753.00 451.00 C 773.38 449.51 770.44 424.00 750.00 424.00 Z"/>
</g>
<g fill="None" fill-opacity="0.0" stroke="#6F6F6F" stroke-opacity="1.00" stroke-width="0.3"><path d="
M 204.00 468.00 
C 203.88 464.98 203.23 461.38 203.00 459.00
C 203.00 462.18 203.64 465.47 204.00 468.00 Z"/>
</g>
<g fill="None" fill-opacity="0.0" stroke="#6F6F6F" stroke-opacity="1.00" stroke-width="0.3"><path d="
M 646.00 468.00 
C 646.35 465.52 647.00 462.19 647.00 459.00
C 646.78 461.32 646.12 464.98 646.00 468.00 Z"/>
</g>
<g fill="None" fill-opacity="0.0" stroke="#6B6B6B" stroke-opacity="1.00" stroke-width="0.3"><path d="
M 546.00 591.00 
C 555.31 584.07 564.32 574.99 572.00 566.00
C 563.67 574.33 554.76 583.36 546.00 591.00 Z"/>
</g>
<g fill="None" fill-opacity="0.0" stroke="#000000" stroke-opacity="1.00" stroke-width="0.3"><path d="
M 221.00 622.00 
C 209.75 633.25 198.20 644.80 187.00 656.00
C 180.06 664.12 175.99 679.01 187.98 683.02 C 199.96 687.03 206.07 675.13 213.75 668.75 C 221.43 662.37 228.26 655.17 234.75 647.75 C 241.24 640.33 253.00 633.33 246.75 622.25 C 240.51 611.17 229.57 614.68 221.00 622.00 Z"/>
</g>
<g fill="None" fill-opacity="0.0" stroke="#000000" stroke-opacity="1.00" stroke-width="0.3"><path d="
M 663.00 656.00 
C 651.75 644.75 640.20 633.20 629.00 622.00
C 619.89 614.21 610.23 611.66 603.75 622.75 C 597.28 633.85 608.60 640.10 615.25 647.75 C 621.89 655.40 628.48 662.22 636.25 668.75 C 644.02 675.28 649.92 686.84 661.92 682.92 C 673.93 679.01 670.06 664.26 663.00 656.00 Z"/>
</g>
<g fill="None" fill-opacity="0.0" stroke="#818181" stroke-opacity="1.00" stroke-width="0.3"><path d="
M 187.00 656.00 
C 198.20 644.80 209.75 633.25 221.00 622.00
C 209.18 632.10 197.14 644.13 187.00 656.00 Z"/>
</g>
<g fill="None" fill-opacity="0.0" stroke="#818181" stroke-opacity="1.00" stroke-width="0.3"><path d="
M 663.00 656.00 
C 652.90 644.18 640.87 632.14 629.00 622.00
C 640.20 633.20 651.75 644.75 663.00 656.00 Z"/>
</g>
<g fill="None" fill-opacity="0.0" stroke="#000000" stroke-opacity="1.00" stroke-width="0.3"><path d="
M 520.00 752.00 
C 510.70 748.57 497.97 753.51 488.00 752.00 C 478.03 750.49 466.19 752.61 456.00 752.00 C 445.81 751.39 435.19 752.03 425.00 752.00 C 414.81 751.97 403.00 751.53 393.00 752.00 C 383.00 752.47 371.44 750.65 362.00 752.00 C 352.56 753.35 338.49 748.86 330.25 752.25 C 322.01 755.63 319.17 765.24 323.23 772.77 C 327.29 780.30 336.39 782.17 346.00 781.00 C 355.61 779.83 367.93 781.49 378.00 781.00 C 388.07 780.51 398.73 781.09 409.00 781.00 C 419.27 780.91 430.69 780.79 441.00 781.00 C 451.31 781.21 462.90 780.34 473.00 781.00 C 483.10 781.66 494.40 779.38 504.00 781.00 C 513.60 782.62 523.29 779.50 527.22 772.22 C 531.16 764.95 526.45 754.38 520.00 752.00 Z"/>
</g>
<g fill="None" fill-opacity="0.0" stroke="#000000" stroke-opacity="1.00" stroke-width="0.3"><path d="
M 520.00 812.00 
C 510.07 808.33 496.65 813.68 486.00 812.00 C 475.35 810.32 462.90 812.82 452.00 812.00 C 441.10 811.18 428.87 812.50 418.00 812.00 C 407.13 811.50 395.63 812.51 385.00 812.00 C 374.37 811.49 361.07 812.84 351.00 812.00 C 340.93 811.16 328.98 811.28 323.92 818.92 C 318.86 826.56 321.06 837.01 330.00 840.00 C 338.94 842.99 353.79 838.62 364.00 840.00 C 374.21 841.38 387.28 839.32 398.00 840.00 C 408.72 840.68 421.17 839.56 432.00 840.00 C 442.83 840.44 454.30 839.52 465.00 840.00 C 475.70 840.48 488.71 839.18 499.00 840.00 C 509.29 840.82 521.17 840.86 526.23 833.23 C 531.29 825.60 527.59 814.80 520.00 812.00 Z"/>
</g>
<g fill="None" fill-opacity="0.0" stroke="#000000" stroke-opacity="1.00" stroke-width="0.3"><path d="
M 490.00 872.00 
C 479.73 868.21 464.90 873.82 454.00 872.00 C 443.10 870.18 429.91 872.94 419.00 872.00 C 408.09 871.06 394.43 872.68 384.00 872.00 C 373.57 871.32 360.95 870.54 354.75 877.75 C 348.56 884.97 350.89 896.40 360.33 899.67 C 369.77 902.94 385.42 898.62 396.00 900.00 C 406.58 901.38 420.15 899.19 431.00 900.00 C 441.85 900.81 455.42 899.23 466.00 900.00 C 476.58 900.77 488.57 901.06 495.25 894.25 C 501.92 887.43 497.81 874.88 490.00 872.00 Z"/>
</g>
<g fill="#F9F9F9" fill-opacity="1.00" stroke="None">
<path d="
M 0.00 995.00 
L 850.00 995.00
L 850.00 0.00
L 0.00 0.00
L 0.00 995.00
M 428.00 95.00 
C 441.88 97.94 439.70 118.04 439.00 130.00 C 438.30 141.96 441.66 161.86 437.22 174.22 C 432.78 186.58 412.98 183.42 411.67 170.33 C 410.36 157.23 411.97 137.20 411.00 125.00 C 410.03 112.80 411.49 91.51 428.00 95.00
M 206.00 199.00 
C 219.62 210.64 234.45 224.81 245.00 239.00
C 254.15 251.30 238.92 265.53 228.30 258.70 C 217.69 251.86 210.91 243.85 202.75 235.25 C 194.59 226.65 183.91 219.60 180.00 209.00
C 178.85 205.89 178.84 203.06 180.00 200.00
C 184.83 187.24 198.52 192.61 206.00 199.00
M 605.00 239.00 
C 615.32 225.12 629.77 211.31 643.00 200.00
C 649.72 194.25 662.22 187.09 668.75 197.25 C 675.28 207.40 664.87 217.85 658.25 224.25 C 651.63 230.65 645.67 238.63 638.25 244.25 C 630.83 249.86 625.55 261.08 615.00 261.00 C 604.44 260.92 598.69 247.48 605.00 239.00
M 646.00 409.00 
C 646.34 411.81 647.00 415.53 647.00 419.00
C 647.00 432.33 647.00 445.67 647.00 459.00
C 647.00 462.19 646.35 465.52 646.00 468.00
C 645.40 483.62 638.69 500.44 633.69 514.69 C 628.70 528.95 622.57 541.91 614.70 554.70 C 606.82 567.48 598.84 576.43 589.25 588.25 C 579.65 600.07 568.60 606.08 557.25 616.25 C 545.90 626.42 528.62 628.27 529.00 647.00 C 529.38 665.73 530.45 686.07 529.00 706.00 C 527.55 725.93 501.38 721.10 485.00 721.00 C 468.62 720.90 442.17 721.13 425.00 721.00 C 407.83 720.87 382.17 721.25 366.00 721.00 C 349.83 720.75 323.02 726.53 321.22 706.78 C 319.42 687.02 320.32 666.83 321.00 648.00 C 321.68 629.17 304.66 626.20 292.75 616.25 C 280.85 606.29 271.34 599.98 261.75 588.25 C 252.15 576.53 243.44 567.88 236.08 554.92 C 228.72 541.95 221.17 530.14 216.22 515.78 C 211.28 501.41 204.60 483.77 204.00 468.00
C 203.64 465.47 203.00 462.18 203.00 459.00
C 203.00 446.00 203.00 433.00 203.00 420.00
C 203.00 416.20 203.63 412.07 204.00 409.00
C 204.71 373.70 223.19 338.36 242.77 309.77 C 262.35 281.18 285.38 262.44 315.08 244.08 C 344.77 225.71 388.25 214.48 425.00 215.00 C 461.75 215.52 504.52 225.10 534.25 243.75 C 563.97 262.41 587.28 280.37 606.75 309.25 C 626.22 338.12 645.29 373.43 646.00 409.00
M 152.00 424.00 
C 172.44 424.00 175.38 449.51 155.00 451.00 C 134.62 452.49 117.38 452.49 97.00 451.00 C 76.62 449.51 79.57 424.00 100.00 424.00
C 116.32 422.42 135.75 422.43 152.00 424.00
M 750.00 424.00 
C 770.44 424.00 773.38 449.51 753.00 451.00 C 732.62 452.49 715.38 452.49 695.00 451.00 C 674.62 449.51 677.57 424.00 698.00 424.00
C 714.32 422.42 733.75 422.43 750.00 424.00
M 187.00 656.00 
C 197.14 644.13 209.18 632.10 221.00 622.00
C 229.57 614.68 240.51 611.17 246.75 622.25 C 253.00 633.33 241.24 640.33 234.75 647.75 C 228.26 655.17 221.43 662.37 213.75 668.75 C 206.07 675.13 199.96 687.03 187.98 683.02 C 175.99 679.01 180.06 664.12 187.00 656.00
M 629.00 622.00 
C 640.87 632.14 652.90 644.18 663.00 656.00
C 670.06 664.26 673.93 679.01 661.92 682.92 C 649.92 686.84 644.02 675.28 636.25 668.75 C 628.48 662.22 621.89 655.40 615.25 647.75 C 608.60 640.10 597.28 633.85 603.75 622.75 C 610.23 611.66 619.89 614.21 629.00 622.00
M 520.00 752.00 
C 526.45 754.38 531.16 764.95 527.22 772.22 C 523.29 779.50 513.60 782.62 504.00 781.00 C 494.40 779.38 483.10 781.66 473.00 781.00 C 462.90 780.34 451.31 781.21 441.00 781.00 C 430.69 780.79 419.27 780.91 409.00 781.00 C 398.73 781.09 388.07 780.51 378.00 781.00 C 367.93 781.49 355.61 779.83 346.00 781.00 C 336.39 782.17 327.29 780.30 323.23 772.77 C 319.17 765.24 322.01 755.63 330.25 752.25 C 338.49 748.86 352.56 753.35 362.00 752.00 C 371.44 750.65 383.00 752.47 393.00 752.00 C 403.00 751.53 414.81 751.97 425.00 752.00 C 435.19 752.03 445.81 751.39 456.00 752.00 C 466.19 752.61 478.03 750.49 488.00 752.00 C 497.97 753.51 510.70 748.57 520.00 752.00
M 520.00 812.00 
C 527.59 814.80 531.29 825.60 526.23 833.23 C 521.17 840.86 509.29 840.82 499.00 840.00 C 488.71 839.18 475.70 840.48 465.00 840.00 C 454.30 839.52 442.83 840.44 432.00 840.00 C 421.17 839.56 408.72 840.68 398.00 840.00 C 387.28 839.32 374.21 841.38 364.00 840.00 C 353.79 838.62 338.94 842.99 330.00 840.00 C 321.06 837.01 318.86 826.56 323.92 818.92 C 328.98 811.28 340.93 811.16 351.00 812.00 C 361.07 812.84 374.37 811.49 385.00 812.00 C 395.63 812.51 407.13 811.50 418.00 812.00 C 428.87 812.50 441.10 811.18 452.00 812.00 C 462.90 812.82 475.35 810.32 486.00 812.00 C 496.65 813.68 510.07 808.33 520.00 812.00
M 490.00 872.00 
C 497.81 874.88 501.92 887.43 495.25 894.25 C 488.57 901.06 476.58 900.77 466.00 900.00 C 455.42 899.23 441.85 900.81 431.00 900.00 C 420.15 899.19 406.58 901.38 396.00 900.00 C 385.42 898.62 369.77 902.94 360.33 899.67 C 350.89 896.40 348.56 884.97 354.75 877.75 C 360.95 870.54 373.57 871.32 384.00 872.00 C 394.43 872.68 408.09 871.06 419.00 872.00 C 429.91 872.94 443.10 870.18 454.00 872.00 C 464.90 873.82 479.73 868.21 490.00 872.00 Z"/>
</g>
<g fill="#000000" fill-opacity="1.00" stroke="None">
<path d="
M 428.00 95.00 
C 411.49 91.51 410.03 112.80 411.00 125.00 C 411.97 137.20 410.36 157.23 411.67 170.33 C 412.98 183.42 432.78 186.58 437.22 174.22 C 441.66 161.86 438.30 141.96 439.00 130.00 C 439.70 118.04 441.88 97.94 428.00 95.00 Z"/>
</g>
<g fill="#000000" fill-opacity="1.00" stroke="None">
<path d="
M 180.00 200.00 
C 179.49 202.21 179.51 206.79 180.00 209.00
C 183.91 219.60 194.59 226.65 202.75 235.25 C 210.91 243.85 217.69 251.86 228.30 258.70 C 238.92 265.53 254.15 251.30 245.00 239.00
C 233.10 225.34 218.94 211.94 206.00 199.00
C 198.52 192.61 184.83 187.24 180.00 200.00 Z"/>
</g>
<g fill="#000000" fill-opacity="1.00" stroke="None">
<path d="
M 643.00 200.00 
C 630.33 212.67 616.56 225.73 605.00 239.00
C 598.69 247.48 604.44 260.92 615.00 261.00 C 625.55 261.08 630.83 249.86 638.25 244.25 C 645.67 238.63 651.63 230.65 658.25 224.25 C 664.87 217.85 675.28 207.40 668.75 197.25 C 662.22 187.09 649.72 194.25 643.00 200.00 Z"/>
</g>
<g fill="#797979" fill-opacity="1.00" stroke="None">
<path d="
M 245.00 239.00 
C 234.45 224.81 219.62 210.64 206.00 199.00
C 218.94 211.94 233.10 225.34 245.00 239.00 Z"/>
</g>
<g fill="#888888" fill-opacity="1.00" stroke="None">
<path d="
M 180.00 209.00 
C 179.51 206.79 179.49 202.21 180.00 200.00
C 178.84 203.06 178.85 205.89 180.00 209.00 Z"/>
</g>
<g fill="#797979" fill-opacity="1.00" stroke="None">
<path d="
M 605.00 239.00 
C 616.56 225.73 630.33 212.67 643.00 200.00
C 629.77 211.31 615.32 225.12 605.00 239.00 Z"/>
</g>
<g fill="#000000" fill-opacity="1.00" stroke="None">
<path d="
M 204.00 409.00 
C 203.93 412.72 203.29 417.01 203.00 420.00
C 203.00 433.00 203.00 446.00 203.00 459.00
C 203.23 461.38 203.88 464.98 204.00 468.00
C 204.60 483.77 211.28 501.41 216.22 515.78 C 221.17 530.14 228.72 541.95 236.08 554.92 C 243.44 567.88 252.15 576.53 261.75 588.25 C 271.34 599.98 280.85 606.29 292.75 616.25 C 304.66 626.20 321.68 629.17 321.00 648.00 C 320.32 666.83 319.42 687.02 321.22 706.78 C 323.02 726.53 349.83 720.75 366.00 721.00 C 382.17 721.25 407.83 720.87 425.00 721.00 C 442.17 721.13 468.62 720.90 485.00 721.00 C 501.38 721.10 527.55 725.93 529.00 706.00 C 530.45 686.07 529.38 665.73 529.00 647.00 C 528.62 628.27 545.90 626.42 557.25 616.25 C 568.60 606.08 579.65 600.07 589.25 588.25 C 598.84 576.43 606.82 567.48 614.70 554.70 C 622.57 541.91 628.70 528.95 633.69 514.69 C 638.69 500.44 645.40 483.62 646.00 468.00
C 646.12 464.98 646.78 461.32 647.00 459.00
C 647.00 445.67 647.00 432.33 647.00 419.00
C 646.74 416.27 646.07 412.39 646.00 409.00
C 645.29 373.43 626.22 338.12 606.75 309.25 C 587.28 280.37 563.97 262.41 534.25 243.75 C 504.52 225.10 461.75 215.52 425.00 215.00 C 388.25 214.48 344.77 225.71 315.08 244.08 C 285.38 262.44 262.35 281.18 242.77 309.77 C 223.19 338.36 204.71 373.70 204.00 409.00
M 618.00 413.00 
C 620.26 428.81 620.25 446.25 618.00 462.00
C 615.79 498.97 595.94 537.99 572.00 566.00
C 564.32 574.99 555.31 584.07 546.00 591.00
C 534.87 599.28 529.29 604.25 515.97 609.97 C 502.66 615.70 499.23 628.62 501.00 644.00 C 502.77 659.38 499.67 677.38 501.00 693.00
C 450.33 693.00 399.67 693.00 349.00 693.00
C 350.87 673.97 346.50 653.93 349.00 635.00 C 351.50 616.07 335.32 611.13 322.31 603.70 C 309.29 596.26 301.18 587.87 290.25 577.75 C 279.31 567.64 271.66 558.46 263.70 546.30 C 255.73 534.15 248.71 522.42 243.69 508.31 C 238.68 494.19 232.89 476.64 232.00 461.00
C 229.74 445.17 229.75 427.76 232.00 412.00
C 233.78 365.46 260.67 326.02 294.25 293.25 C 327.83 260.48 377.71 243.01 425.00 243.00 C 472.29 242.99 521.59 260.61 555.75 293.25 C 589.91 325.89 615.21 366.39 618.00 413.00 Z"/>
</g>
<g fill="#F9F9F9" fill-opacity="1.00" stroke="None">
<path d="
M 232.00 412.00 
C 231.38 428.29 231.38 444.71 232.00 461.00
C 232.89 476.64 238.68 494.19 243.69 508.31 C 248.71 522.42 255.73 534.15 263.70 546.30 C 271.66 558.46 279.31 567.64 290.25 577.75 C 301.18 587.87 309.29 596.26 322.31 603.70 C 335.32 611.13 351.50 616.07 349.00 635.00 C 346.50 653.93 350.87 673.97 349.00 693.00
C 399.67 693.00 450.33 693.00 501.00 693.00
C 499.67 677.38 502.77 659.38 501.00 644.00 C 499.23 628.62 502.66 615.70 515.97 609.97 C 529.29 604.25 534.87 599.28 546.00 591.00
C 554.76 583.36 563.67 574.33 572.00 566.00
C 595.94 537.99 615.79 498.97 618.00 462.00
C 618.97 445.78 618.97 429.23 618.00 413.00
C 615.21 366.39 589.91 325.89 555.75 293.25 C 521.59 260.61 472.29 242.99 425.00 243.00 C 377.71 243.01 327.83 260.48 294.25 293.25 C 260.67 326.02 233.78 365.46 232.00 412.00
M 438.00 274.00 
C 450.68 275.23 466.43 279.42 478.67 283.33 C 490.92 287.24 501.96 293.78 512.75 300.25 C 523.53 306.73 531.44 314.47 540.75 323.25 C 550.07 332.03 555.58 340.44 562.92 351.08 C 570.25 361.72 574.00 373.00 579.78 385.22 C 585.56 397.45 583.79 414.75 588.00 428.00 C 592.21 441.25 576.70 458.96 565.25 447.75 C 553.81 436.53 561.90 418.75 557.00 406.00 C 552.10 393.25 549.50 381.09 542.08 369.92 C 534.67 358.75 528.51 351.59 519.25 341.75 C 509.98 331.92 501.93 327.88 490.92 320.08 C 479.92 312.28 466.81 310.86 454.00 306.00 C 441.18 301.14 423.17 309.15 413.70 295.30 C 404.23 281.46 424.52 272.70 438.00 274.00 Z"/>
</g>
<g fill="#000000" fill-opacity="1.00" stroke="None">
<path d="
M 438.00 274.00 
C 424.52 272.70 404.23 281.46 413.70 295.30 C 423.17 309.15 441.18 301.14 454.00 306.00 C 466.81 310.86 479.92 312.28 490.92 320.08 C 501.93 327.88 509.98 331.92 519.25 341.75 C 528.51 351.59 534.67 358.75 542.08 369.92 C 549.50 381.09 552.10 393.25 557.00 406.00 C 561.90 418.75 553.81 436.53 565.25 447.75 C 576.70 458.96 592.21 441.25 588.00 428.00 C 583.79 414.75 585.56 397.45 579.78 385.22 C 574.00 373.00 570.25 361.72 562.92 351.08 C 555.58 340.44 550.07 332.03 540.75 323.25 C 531.44 314.47 523.53 306.73 512.75 300.25 C 501.96 293.78 490.92 287.24 478.67 283.33 C 466.43 279.42 450.68 275.23 438.00 274.00 Z"/>
</g>
<g fill="#6C6C6C" fill-opacity="1.00" stroke="None">
<path d="
M 203.00 420.00 
C 203.29 417.01 203.93 412.72 204.00 409.00
C 203.63 412.07 203.00 416.20 203.00 420.00 Z"/>
</g>
<g fill="#6C6C6C" fill-opacity="1.00" stroke="None">
<path d="
M 647.00 419.00 
C 647.00 415.53 646.34 411.81 646.00 409.00
C 646.07 412.39 646.74 416.27 647.00 419.00 Z"/>
</g>
<g fill="#6C6C6C" fill-opacity="1.00" stroke="None">
<path d="
M 232.00 461.00 
C 231.38 444.71 231.38 428.29 232.00 412.00
C 229.75 427.76 229.74 445.17 232.00 461.00 Z"/>
</g>
<g fill="#6A6A6A" fill-opacity="1.00" stroke="None">
<path d="
M 618.00 462.00 
C 620.25 446.25 620.26 428.81 618.00 413.00
C 618.97 429.23 618.97 445.78 618.00 462.00 Z"/>
</g>
<g fill="#5C5C5C" fill-opacity="1.00" stroke="None">
<path d="
M 100.00 424.00 
C 117.33 424.00 134.67 424.00 152.00 424.00
C 135.75 422.43 116.32 422.42 100.00 424.00 Z"/>
</g>
<g fill="#5C5C5C" fill-opacity="1.00" stroke="None">
<path d="
M 698.00 424.00 
C 715.33 424.00 732.67 424.00 750.00 424.00
C 733.75 422.43 714.32 422.42 698.00 424.00 Z"/>
</g>
<g fill="#000000" fill-opacity="1.00" stroke="None">
<path d="
M 152.00 424.00 
C 134.67 424.00 117.33 424.00 100.00 424.00
C 79.57 424.00 76.62 449.51 97.00 451.00 C 117.38 452.49 134.62 452.49 155.00 451.00 C 175.38 449.51 172.44 424.00 152.00 424.00 Z"/>
</g>
<g fill="#000000" fill-opacity="1.00" stroke="None">
<path d="
M 750.00 424.00 
C 732.67 424.00 715.33 424.00 698.00 424.00
C 677.57 424.00 674.62 449.51 695.00 451.00 C 715.38 452.49 732.62 452.49 753.00 451.00 C 773.38 449.51 770.44 424.00 750.00 424.00 Z"/>
</g>
<g fill="#6F6F6F" fill-opacity="1.00" stroke="None">
<path d="
M 204.00 468.00 
C 203.88 464.98 203.23 461.38 203.00 459.00
C 203.00 462.18 203.64 465.47 204.00 468.00 Z"/>
</g>
<g fill="#6F6F6F" fill-opacity="1.00" stroke="None">
<path d="
M 646.00 468.00 
C 646.35 465.52 647.00 462.19 647.00 459.00
C 646.78 461.32 646.12 464.98 646.00 468.00 Z"/>
</g>
<g fill="#6B6B6B" fill-opacity="1.00" stroke="None">
<path d="
M 546.00 591.00 
C 555.31 584.07 564.32 574.99 572.00 566.00
C 563.67 574.33 554.76 583.36 546.00 591.00 Z"/>
</g>
<g fill="#000000" fill-opacity="1.00" stroke="None">
<path d="
M 221.00 622.00 
C 209.75 633.25 198.20 644.80 187.00 656.00
C 180.06 664.12 175.99 679.01 187.98 683.02 C 199.96 687.03 206.07 675.13 213.75 668.75 C 221.43 662.37 228.26 655.17 234.75 647.75 C 241.24 640.33 253.00 633.33 246.75 622.25 C 240.51 611.17 229.57 614.68 221.00 622.00 Z"/>
</g>
<g fill="#000000" fill-opacity="1.00" stroke="None">
<path d="
M 663.00 656.00 
C 651.75 644.75 640.20 633.20 629.00 622.00
C 619.89 614.21 610.23 611.66 603.75 622.75 C 597.28 633.85 608.60 640.10 615.25 647.75 C 621.89 655.40 628.48 662.22 636.25 668.75 C 644.02 675.28 649.92 686.84 661.92 682.92 C 673.93 679.01 670.06 664.26 663.00 656.00 Z"/>
</g>
<g fill="#818181" fill-opacity="1.00" stroke="None">
<path d="
M 187.00 656.00 
C 198.20 644.80 209.75 633.25 221.00 622.00
C 209.18 632.10 197.14 644.13 187.00 656.00 Z"/>
</g>
<g fill="#818181" fill-opacity="1.00" stroke="None">
<path d="
M 663.00 656.00 
C 652.90 644.18 640.87 632.14 629.00 622.00
C 640.20 633.20 651.75 644.75 663.00 656.00 Z"/>
</g>
<g fill="#000000" fill-opacity="1.00" stroke="None">
<path d="
M 520.00 752.00 
C 510.70 748.57 497.97 753.51 488.00 752.00 C 478.03 750.49 466.19 752.61 456.00 752.00 C 445.81 751.39 435.19 752.03 425.00 752.00 C 414.81 751.97 403.00 751.53 393.00 752.00 C 383.00 752.47 371.44 750.65 362.00 752.00 C 352.56 753.35 338.49 748.86 330.25 752.25 C 322.01 755.63 319.17 765.24 323.23 772.77 C 327.29 780.30 336.39 782.17 346.00 781.00 C 355.61 779.83 367.93 781.49 378.00 781.00 C 388.07 780.51 398.73 781.09 409.00 781.00 C 419.27 780.91 430.69 780.79 441.00 781.00 C 451.31 781.21 462.90 780.34 473.00 781.00 C 483.10 781.66 494.40 779.38 504.00 781.00 C 513.60 782.62 523.29 779.50 527.22 772.22 C 531.16 764.95 526.45 754.38 520.00 752.00 Z"/>
</g>
<g fill="#000000" fill-opacity="1.00" stroke="None">
<path d="
M 520.00 812.00 
C 510.07 808.33 496.65 813.68 486.00 812.00 C 475.35 810.32 462.90 812.82 452.00 812.00 C 441.10 811.18 428.87 812.50 418.00 812.00 C 407.13 811.50 395.63 812.51 385.00 812.00 C 374.37 811.49 361.07 812.84 351.00 812.00 C 340.93 811.16 328.98 811.28 323.92 818.92 C 318.86 826.56 321.06 837.01 330.00 840.00 C 338.94 842.99 353.79 838.62 364.00 840.00 C 374.21 841.38 387.28 839.32 398.00 840.00 C 408.72 840.68 421.17 839.56 432.00 840.00 C 442.83 840.44 454.30 839.52 465.00 840.00 C 475.70 840.48 488.71 839.18 499.00 840.00 C 509.29 840.82 521.17 840.86 526.23 833.23 C 531.29 825.60 527.59 814.80 520.00 812.00 Z"/>
</g>
<g fill="#000000" fill-opacity="1.00" stroke="None">
<path d="
M 490.00 872.00 
C 479.73 868.21 464.90 873.82 454.00 872.00 C 443.10 870.18 429.91 872.94 419.00 872.00 C 408.09 871.06 394.43 872.68 384.00 872.00 C 373.57 871.32 360.95 870.54 354.75 877.75 C 348.56 884.97 350.89 896.40 360.33 899.67 C 369.77 902.94 385.42 898.62 396.00 900.00 C 406.58 901.38 420.15 899.19 431.00 900.00 C 441.85 900.81 455.42 899.23 466.00 900.00 C 476.58 900.77 488.57 901.06 495.25 894.25 C 501.92 887.43 497.81 874.88 490.00 872.00 Z"/>
</g>
</svg>