<svg xmlns="http://www.w3.org/2000/svg" xmlns:v="https://svgstorm.com"
viewBox = "0 0 512 512"
width="512"
height="512">
<g fill="None" fill-opacity="0.0" stroke="#000000" stroke-opacity="0.00" stroke-width="0.3"><path d="
M 0.00 512.00 
L 73.00 512.00
C 61.28 502.61 68.88 483.24 67.00 468.00 C 65.12 452.76 66.74 445.74 75.25 436.25 C 83.75 426.75 93.33 425.44 109.00 427.00
C 107.33 331.26 107.33 233.71 109.00 138.00
C 83.32 114.73 96.14 61.76 93.00 19.00
C 82.00 17.87 82.18 2.83 93.00 0.00
L 0.00 0.00
L 0.00 512.00 Z"/>
</g>
<g fill="None" fill-opacity="0.0" stroke="#000000" stroke-opacity="0.98" stroke-width="0.3"><path d="
M 73.00 512.00 
L 440.00 512.00
C 449.66 501.93 443.69 482.28 445.00 467.00 C 446.31 451.72 445.36 445.22 437.23 435.77 C 429.10 426.31 417.48 425.77 403.00 427.00
C 404.67 331.26 404.67 233.71 403.00 138.00
C 428.93 114.21 415.73 61.75 419.00 19.00
C 430.09 19.02 429.98 1.83 419.00 0.00
L 93.00 0.00
C 82.18 2.83 82.00 17.87 93.00 19.00
C 96.14 61.76 83.32 114.73 109.00 138.00
C 107.33 233.71 107.33 331.26 109.00 427.00
C 93.33 425.44 83.75 426.75 75.25 436.25 C 66.74 445.74 65.12 452.76 67.00 468.00 C 68.88 483.24 61.28 502.61 73.00 512.00
M 400.00 20.00 
C 399.75 38.61 400.34 64.07 400.00 82.00 C 399.66 99.93 398.74 109.32 392.42 119.77 C 386.11 130.22 379.36 137.15 367.75 141.76 C 356.14 146.36 338.02 143.55 320.00 144.00 C 301.98 144.45 275.67 143.79 257.00 144.00 C 238.33 144.21 212.86 143.91 195.00 144.00 C 177.14 144.09 157.39 145.59 145.70 141.29 C 134.00 136.99 126.74 132.19 119.91 121.08 C 113.09 109.97 112.86 101.44 112.00 83.00 C 111.14 64.56 112.64 39.08 112.00 20.00
C 208.00 20.00 304.00 20.00 400.00 20.00
M 221.00 205.00 
C 224.19 216.50 213.87 246.10 228.75 246.39 C 243.64 246.68 267.64 246.50 282.74 246.60 C 297.84 246.70 288.15 216.66 291.00 205.00
C 297.38 204.07 309.16 206.24 315.00 205.00 C 320.84 203.76 324.74 204.41 325.19 197.75 C 325.64 191.08 325.01 184.37 325.00 175.00 C 324.99 165.63 326.47 162.89 339.00 164.00 C 351.53 165.11 364.32 164.29 371.90 160.88 C 379.48 157.48 376.68 159.55 384.00 156.00
C 384.00 168.48 384.01 180.47 384.00 193.00 C 383.99 205.53 384.01 218.41 384.00 231.00 C 383.99 243.59 384.02 256.40 384.00 269.00 C 383.98 281.60 384.05 294.43 384.00 307.00 C 383.95 319.57 384.12 331.41 384.00 344.00 C 383.88 356.59 384.25 369.34 384.00 382.00 C 383.75 394.66 384.56 407.29 384.00 420.00 C 383.44 432.71 363.74 425.58 353.00 427.00 C 342.26 428.42 326.22 425.94 315.00 427.00
C 318.38 418.82 321.13 412.17 320.00 400.00
C 331.37 397.75 355.96 406.81 356.93 390.92 C 357.90 375.03 357.48 355.27 356.40 340.26 C 355.32 325.24 331.69 334.92 320.00 332.00
C 325.09 310.46 302.98 313.66 286.00 314.00 C 269.02 314.34 245.01 313.68 228.00 314.00 C 210.99 314.32 191.31 309.29 192.00 328.00 C 192.69 346.71 191.65 368.03 192.00 386.00 C 192.35 403.97 190.94 415.76 198.00 427.00
C 187.17 427.33 178.00 426.56 167.00 427.00 C 156.00 427.44 147.61 426.15 136.00 427.00 C 124.39 427.85 128.23 413.65 128.00 404.00 C 127.77 394.35 128.10 383.03 128.00 373.00 C 127.90 362.97 128.05 352.19 128.00 342.00 C 127.95 331.81 128.02 321.27 128.00 311.00 C 127.98 300.73 128.01 290.31 128.00 280.00 C 127.99 269.69 128.00 259.32 128.00 249.00 C 128.00 238.68 128.00 228.33 128.00 218.00 C 128.00 207.67 128.00 197.33 128.00 187.00 C 128.00 176.67 128.00 166.33 128.00 156.00
C 137.10 159.88 145.33 163.90 156.25 164.20 C 167.16 164.50 173.47 162.56 183.00 164.00 C 192.53 165.44 185.30 181.95 187.00 189.00 C 188.70 196.05 184.71 203.34 193.25 204.19 C 201.80 205.04 212.05 205.24 221.00 205.00
M 306.00 164.00 
C 306.00 171.00 306.00 178.00 306.00 185.00
C 272.67 185.00 239.33 185.00 206.00 185.00
C 206.00 178.00 206.00 171.00 206.00 164.00
C 239.33 164.00 272.67 164.00 306.00 164.00
M 271.00 205.00 
C 271.00 212.33 271.00 219.67 271.00 227.00
C 261.00 227.00 251.00 227.00 241.00 227.00
C 241.00 219.67 241.00 212.33 241.00 205.00
C 251.00 205.00 261.00 205.00 271.00 205.00
M 301.00 334.00 
C 300.26 356.71 302.34 387.67 300.22 409.22 C 298.10 430.77 274.21 425.86 255.00 426.00 C 235.79 426.14 213.68 429.96 212.20 408.75 C 210.72 387.55 212.90 356.57 212.00 334.00
C 241.67 334.00 271.33 334.00 301.00 334.00
M 337.00 352.00 
C 337.00 361.67 337.00 371.33 337.00 381.00
C 331.33 381.00 325.67 381.00 320.00 381.00
C 320.00 371.33 320.00 361.67 320.00 352.00
C 325.67 352.00 331.33 352.00 337.00 352.00
M 426.00 492.00 
C 312.67 492.00 199.33 492.00 86.00 492.00
C 90.34 478.56 76.80 446.97 95.75 446.40 C 114.71 445.82 138.71 447.65 159.00 447.00 C 179.29 446.35 202.24 447.29 223.00 447.00 C 243.76 446.71 266.15 447.13 287.00 447.00 C 307.85 446.87 330.38 447.05 351.00 447.00 C 371.62 446.95 395.08 447.01 415.00 447.00 C 434.92 446.99 422.19 477.02 426.00 492.00 Z"/>
</g>
<g fill="None" fill-opacity="0.0" stroke="#000000" stroke-opacity="0.00" stroke-width="0.3"><path d="
M 440.00 512.00 
L 512.00 512.00
L 512.00 0.00
L 419.00 0.00
C 429.98 1.83 430.09 19.02 419.00 19.00
C 415.73 61.75 428.93 114.21 403.00 138.00
C 404.67 233.71 404.67 331.26 403.00 427.00
C 417.48 425.77 429.10 426.31 437.23 435.77 C 445.36 445.22 446.31 451.72 445.00 467.00 C 443.69 482.28 449.66 501.93 440.00 512.00 Z"/>
</g>
<g fill="None" fill-opacity="0.0" stroke="#000000" stroke-opacity="0.01" stroke-width="0.3"><path d="
M 400.00 20.00 
C 304.00 20.00 208.00 20.00 112.00 20.00
C 112.64 39.08 111.14 64.56 112.00 83.00 C 112.86 101.44 113.09 109.97 119.91 121.08 C 126.74 132.19 134.00 136.99 145.70 141.29 C 157.39 145.59 177.14 144.09 195.00 144.00 C 212.86 143.91 238.33 144.21 257.00 144.00 C 275.67 143.79 301.98 144.45 320.00 144.00 C 338.02 143.55 356.14 146.36 367.75 141.76 C 379.36 137.15 386.11 130.22 392.42 119.77 C 398.74 109.32 399.66 99.93 400.00 82.00 C 400.34 64.07 399.75 38.61 400.00 20.00
M 159.00 60.00 
C 181.11 55.49 200.04 79.93 192.87 99.92 C 185.70 119.90 158.85 126.46 143.10 110.90 C 127.34 95.34 135.64 64.77 159.00 60.00
M 308.00 62.00 
C 320.10 59.58 339.21 64.21 352.00 62.00 C 364.79 59.79 379.30 63.27 377.60 74.74 C 375.89 86.22 358.84 82.67 347.00 83.00 C 335.16 83.33 314.31 83.98 305.25 81.61 C 296.19 79.23 298.64 63.87 308.00 62.00
M 307.00 98.00 
C 314.21 96.68 327.33 100.32 336.00 99.00 C 344.67 97.68 360.05 99.82 368.00 99.00 C 375.95 98.18 378.65 104.42 376.24 111.25 C 373.84 118.07 364.91 119.37 356.00 119.00 C 347.09 118.63 332.80 118.45 324.00 119.00 C 315.20 119.55 304.50 118.54 300.30 112.70 C 296.11 106.85 302.65 98.80 307.00 98.00 Z"/>
</g>
<g fill="None" fill-opacity="0.0" stroke="#000000" stroke-opacity="0.98" stroke-width="0.3"><path d="
M 159.00 60.00 
C 135.64 64.77 127.34 95.34 143.10 110.90 C 158.85 126.46 185.70 119.90 192.87 99.92 C 200.04 79.93 181.11 55.49 159.00 60.00
M 162.00 80.00 
C 174.55 77.15 179.45 96.56 166.75 99.80 C 154.05 103.04 149.77 82.78 162.00 80.00 Z"/>
</g>
<g fill="None" fill-opacity="0.0" stroke="#000000" stroke-opacity="0.95" stroke-width="0.3"><path d="
M 308.00 62.00 
C 298.64 63.87 296.19 79.23 305.25 81.61 C 314.31 83.98 335.16 83.33 347.00 83.00 C 358.84 82.67 375.89 86.22 377.60 74.74 C 379.30 63.27 364.79 59.79 352.00 62.00 C 339.21 64.21 320.10 59.58 308.00 62.00 Z"/>
</g>
<g fill="None" fill-opacity="0.0" stroke="#000000" stroke-opacity="0.06" stroke-width="0.3"><path d="
M 162.00 80.00 
C 149.77 82.78 154.05 103.04 166.75 99.80 C 179.45 96.56 174.55 77.15 162.00 80.00 Z"/>
</g>
<g fill="None" fill-opacity="0.0" stroke="#000000" stroke-opacity="0.96" stroke-width="0.3"><path d="
M 307.00 98.00 
C 302.65 98.80 296.11 106.85 300.30 112.70 C 304.50 118.54 315.20 119.55 324.00 119.00 C 332.80 118.45 347.09 118.63 356.00 119.00 C 364.91 119.37 373.84 118.07 376.24 111.25 C 378.65 104.42 375.95 98.18 368.00 99.00 C 360.05 99.82 344.67 97.68 336.00 99.00 C 327.33 100.32 314.21 96.68 307.00 98.00 Z"/>
</g>
<g fill="None" fill-opacity="0.0" stroke="#000000" stroke-opacity="0.02" stroke-width="0.3"><path d="
M 221.00 205.00 
C 212.05 205.24 201.80 205.04 193.25 204.19 C 184.71 203.34 188.70 196.05 187.00 189.00 C 185.30 181.95 192.53 165.44 183.00 164.00 C 173.47 162.56 167.16 164.50 156.25 164.20 C 145.33 163.90 137.10 159.88 128.00 156.00
C 128.00 166.33 128.00 176.67 128.00 187.00 C 128.00 197.33 128.00 207.67 128.00 218.00 C 128.00 228.33 128.00 238.68 128.00 249.00 C 128.00 259.32 127.99 269.69 128.00 280.00 C 128.01 290.31 127.98 300.73 128.00 311.00 C 128.02 321.27 127.95 331.81 128.00 342.00 C 128.05 352.19 127.90 362.97 128.00 373.00 C 128.10 383.03 127.77 394.35 128.00 404.00 C 128.23 413.65 124.39 427.85 136.00 427.00 C 147.61 426.15 156.00 427.44 167.00 427.00 C 178.00 426.56 187.17 427.33 198.00 427.00
C 190.94 415.76 192.35 403.97 192.00 386.00 C 191.65 368.03 192.69 346.71 192.00 328.00 C 191.31 309.29 210.99 314.32 228.00 314.00 C 245.01 313.68 269.02 314.34 286.00 314.00 C 302.98 313.66 325.09 310.46 320.00 332.00
C 331.69 334.92 355.32 325.24 356.40 340.26 C 357.48 355.27 357.90 375.03 356.93 390.92 C 355.96 406.81 331.37 397.75 320.00 400.00
C 321.13 412.17 318.38 418.82 315.00 427.00
C 326.22 425.94 342.26 428.42 353.00 427.00 C 363.74 425.58 383.44 432.71 384.00 420.00 C 384.56 407.29 383.75 394.66 384.00 382.00 C 384.25 369.34 383.88 356.59 384.00 344.00 C 384.12 331.41 383.95 319.57 384.00 307.00 C 384.05 294.43 383.98 281.60 384.00 269.00 C 384.02 256.40 383.99 243.59 384.00 231.00 C 384.01 218.41 383.99 205.53 384.00 193.00 C 384.01 180.47 384.00 168.48 384.00 156.00
C 376.68 159.55 379.48 157.48 371.90 160.88 C 364.32 164.29 351.53 165.11 339.00 164.00 C 326.47 162.89 324.99 165.63 325.00 175.00 C 325.01 184.37 325.64 191.08 325.19 197.75 C 324.74 204.41 320.84 203.76 315.00 205.00 C 309.16 206.24 297.38 204.07 291.00 205.00
C 288.15 216.66 297.84 246.70 282.74 246.60 C 267.64 246.50 243.64 246.68 228.75 246.39 C 213.87 246.10 224.19 216.50 221.00 205.00 Z"/>
</g>
<g fill="None" fill-opacity="0.0" stroke="#000000" stroke-opacity="0.04" stroke-width="0.3"><path d="
M 306.00 164.00 
C 272.67 164.00 239.33 164.00 206.00 164.00
C 206.00 171.00 206.00 178.00 206.00 185.00
C 239.33 185.00 272.67 185.00 306.00 185.00
C 306.00 178.00 306.00 171.00 306.00 164.00 Z"/>
</g>
<g fill="None" fill-opacity="0.0" stroke="#000000" stroke-opacity="0.01" stroke-width="0.3"><path d="
M 271.00 205.00 
C 261.00 205.00 251.00 205.00 241.00 205.00
C 241.00 212.33 241.00 219.67 241.00 227.00
C 251.00 227.00 261.00 227.00 271.00 227.00
C 271.00 219.67 271.00 212.33 271.00 205.00 Z"/>
</g>
<g fill="None" fill-opacity="0.0" stroke="#000000" stroke-opacity="0.01" stroke-width="0.3"><path d="
M 301.00 334.00 
C 271.33 334.00 241.67 334.00 212.00 334.00
C 212.90 356.57 210.72 387.55 212.20 408.75 C 213.68 429.96 235.79 426.14 255.00 426.00 C 274.21 425.86 298.10 430.77 300.22 409.22 C 302.34 387.67 300.26 356.71 301.00 334.00 Z"/>
</g>
<g fill="None" fill-opacity="0.0" stroke="#000000" stroke-opacity="0.04" stroke-width="0.3"><path d="
M 337.00 352.00 
C 331.33 352.00 325.67 352.00 320.00 352.00
C 320.00 361.67 320.00 371.33 320.00 381.00
C 325.67 381.00 331.33 381.00 337.00 381.00
C 337.00 371.33 337.00 361.67 337.00 352.00 Z"/>
</g>
<g fill="None" fill-opacity="0.0" stroke="#000000" stroke-opacity="0.00" stroke-width="0.3"><path d="
M 426.00 492.00 
C 422.19 477.02 434.92 446.99 415.00 447.00 C 395.08 447.01 371.62 446.95 351.00 447.00 C 330.38 447.05 307.85 446.87 287.00 447.00 C 266.15 447.13 243.76 446.71 223.00 447.00 C 202.24 447.29 179.29 446.35 159.00 447.00 C 138.71 447.65 114.71 445.82 95.75 446.40 C 76.80 446.97 90.34 478.56 86.00 492.00
C 199.33 492.00 312.67 492.00 426.00 492.00 Z"/>
</g>
<g fill="#000000" fill-opacity="0.00" stroke="None">
<path d="
M 0.00 512.00 
L 73.00 512.00
C 61.28 502.61 68.88 483.24 67.00 468.00 C 65.12 452.76 66.74 445.74 75.25 436.25 C 83.75 426.75 93.33 425.44 109.00 427.00
C 107.33 331.26 107.33 233.71 109.00 138.00
C 83.32 114.73 96.14 61.76 93.00 19.00
C 82.00 17.87 82.18 2.83 93.00 0.00
L 0.00 0.00
L 0.00 512.00 Z"/>
</g>
<g fill="#000000" fill-opacity="0.98" stroke="None">
<path d="
M 73.00 512.00 
L 440.00 512.00
C 449.66 501.93 443.69 482.28 445.00 467.00 C 446.31 451.72 445.36 445.22 437.23 435.77 C 429.10 426.31 417.48 425.77 403.00 427.00
C 404.67 331.26 404.67 233.71 403.00 138.00
C 428.93 114.21 415.73 61.75 419.00 19.00
C 430.09 19.02 429.98 1.83 419.00 0.00
L 93.00 0.00
C 82.18 2.83 82.00 17.87 93.00 19.00
C 96.14 61.76 83.32 114.73 109.00 138.00
C 107.33 233.71 107.33 331.26 109.00 427.00
C 93.33 425.44 83.75 426.75 75.25 436.25 C 66.74 445.74 65.12 452.76 67.00 468.00 C 68.88 483.24 61.28 502.61 73.00 512.00
M 400.00 20.00 
C 399.75 38.61 400.34 64.07 400.00 82.00 C 399.66 99.93 398.74 109.32 392.42 119.77 C 386.11 130.22 379.36 137.15 367.75 141.76 C 356.14 146.36 338.02 143.55 320.00 144.00 C 301.98 144.45 275.67 143.79 257.00 144.00 C 238.33 144.21 212.86 143.91 195.00 144.00 C 177.14 144.09 157.39 145.59 145.70 141.29 C 134.00 136.99 126.74 132.19 119.91 121.08 C 113.09 109.97 112.86 101.44 112.00 83.00 C 111.14 64.56 112.64 39.08 112.00 20.00
C 208.00 20.00 304.00 20.00 400.00 20.00
M 221.00 205.00 
C 224.19 216.50 213.87 246.10 228.75 246.39 C 243.64 246.68 267.64 246.50 282.74 246.60 C 297.84 246.70 288.15 216.66 291.00 205.00
C 297.38 204.07 309.16 206.24 315.00 205.00 C 320.84 203.76 324.74 204.41 325.19 197.75 C 325.64 191.08 325.01 184.37 325.00 175.00 C 324.99 165.63 326.47 162.89 339.00 164.00 C 351.53 165.11 364.32 164.29 371.90 160.88 C 379.48 157.48 376.68 159.55 384.00 156.00
C 384.00 168.48 384.01 180.47 384.00 193.00 C 383.99 205.53 384.01 218.41 384.00 231.00 C 383.99 243.59 384.02 256.40 384.00 269.00 C 383.98 281.60 384.05 294.43 384.00 307.00 C 383.95 319.57 384.12 331.41 384.00 344.00 C 383.88 356.59 384.25 369.34 384.00 382.00 C 383.75 394.66 384.56 407.29 384.00 420.00 C 383.44 432.71 363.74 425.58 353.00 427.00 C 342.26 428.42 326.22 425.94 315.00 427.00
C 318.38 418.82 321.13 412.17 320.00 400.00
C 331.37 397.75 355.96 406.81 356.93 390.92 C 357.90 375.03 357.48 355.27 356.40 340.26 C 355.32 325.24 331.69 334.92 320.00 332.00
C 325.09 310.46 302.98 313.66 286.00 314.00 C 269.02 314.34 245.01 313.68 228.00 314.00 C 210.99 314.32 191.31 309.29 192.00 328.00 C 192.69 346.71 191.65 368.03 192.00 386.00 C 192.35 403.97 190.94 415.76 198.00 427.00
C 187.17 427.33 178.00 426.56 167.00 427.00 C 156.00 427.44 147.61 426.15 136.00 427.00 C 124.39 427.85 128.23 413.65 128.00 404.00 C 127.77 394.35 128.10 383.03 128.00 373.00 C 127.90 362.97 128.05 352.19 128.00 342.00 C 127.95 331.81 128.02 321.27 128.00 311.00 C 127.98 300.73 128.01 290.31 128.00 280.00 C 127.99 269.69 128.00 259.32 128.00 249.00 C 128.00 238.68 128.00 228.33 128.00 218.00 C 128.00 207.67 128.00 197.33 128.00 187.00 C 128.00 176.67 128.00 166.33 128.00 156.00
C 137.10 159.88 145.33 163.90 156.25 164.20 C 167.16 164.50 173.47 162.56 183.00 164.00 C 192.53 165.44 185.30 181.95 187.00 189.00 C 188.70 196.05 184.71 203.34 193.25 204.19 C 201.80 205.04 212.05 205.24 221.00 205.00
M 306.00 164.00 
C 306.00 171.00 306.00 178.00 306.00 185.00
C 272.67 185.00 239.33 185.00 206.00 185.00
C 206.00 178.00 206.00 171.00 206.00 164.00
C 239.33 164.00 272.67 164.00 306.00 164.00
M 271.00 205.00 
C 271.00 212.33 271.00 219.67 271.00 227.00
C 261.00 227.00 251.00 227.00 241.00 227.00
C 241.00 219.67 241.00 212.33 241.00 205.00
C 251.00 205.00 261.00 205.00 271.00 205.00
M 301.00 334.00 
C 300.26 356.71 302.34 387.67 300.22 409.22 C 298.10 430.77 274.21 425.86 255.00 426.00 C 235.79 426.14 213.68 429.96 212.20 408.75 C 210.72 387.55 212.90 356.57 212.00 334.00
C 241.67 334.00 271.33 334.00 301.00 334.00
M 337.00 352.00 
C 337.00 361.67 337.00 371.33 337.00 381.00
C 331.33 381.00 325.67 381.00 320.00 381.00
C 320.00 371.33 320.00 361.67 320.00 352.00
C 325.67 352.00 331.33 352.00 337.00 352.00
M 426.00 492.00 
C 312.67 492.00 199.33 492.00 86.00 492.00
C 90.34 478.56 76.80 446.97 95.75 446.40 C 114.71 445.82 138.71 447.65 159.00 447.00 C 179.29 446.35 202.24 447.29 223.00 447.00 C 243.76 446.71 266.15 447.13 287.00 447.00 C 307.85 446.87 330.38 447.05 351.00 447.00 C 371.62 446.95 395.08 447.01 415.00 447.00 C 434.92 446.99 422.19 477.02 426.00 492.00 Z"/>
</g>
<g fill="#000000" fill-opacity="0.00" stroke="None">
<path d="
M 440.00 512.00 
L 512.00 512.00
L 512.00 0.00
L 419.00 0.00
C 429.98 1.83 430.09 19.02 419.00 19.00
C 415.73 61.75 428.93 114.21 403.00 138.00
C 404.67 233.71 404.67 331.26 403.00 427.00
C 417.48 425.77 429.10 426.31 437.23 435.77 C 445.36 445.22 446.31 451.72 445.00 467.00 C 443.69 482.28 449.66 501.93 440.00 512.00 Z"/>
</g>
<g fill="#000000" fill-opacity="0.01" stroke="None">
<path d="
M 400.00 20.00 
C 304.00 20.00 208.00 20.00 112.00 20.00
C 112.64 39.08 111.14 64.56 112.00 83.00 C 112.86 101.44 113.09 109.97 119.91 121.08 C 126.74 132.19 134.00 136.99 145.70 141.29 C 157.39 145.59 177.14 144.09 195.00 144.00 C 212.86 143.91 238.33 144.21 257.00 144.00 C 275.67 143.79 301.98 144.45 320.00 144.00 C 338.02 143.55 356.14 146.36 367.75 141.76 C 379.36 137.15 386.11 130.22 392.42 119.77 C 398.74 109.32 399.66 99.93 400.00 82.00 C 400.34 64.07 399.75 38.61 400.00 20.00
M 159.00 60.00 
C 181.11 55.49 200.04 79.93 192.87 99.92 C 185.70 119.90 158.85 126.46 143.10 110.90 C 127.34 95.34 135.64 64.77 159.00 60.00
M 308.00 62.00 
C 320.10 59.58 339.21 64.21 352.00 62.00 C 364.79 59.79 379.30 63.27 377.60 74.74 C 375.89 86.22 358.84 82.67 347.00 83.00 C 335.16 83.33 314.31 83.98 305.25 81.61 C 296.19 79.23 298.64 63.87 308.00 62.00
M 307.00 98.00 
C 314.21 96.68 327.33 100.32 336.00 99.00 C 344.67 97.68 360.05 99.82 368.00 99.00 C 375.95 98.18 378.65 104.42 376.24 111.25 C 373.84 118.07 364.91 119.37 356.00 119.00 C 347.09 118.63 332.80 118.45 324.00 119.00 C 315.20 119.55 304.50 118.54 300.30 112.70 C 296.11 106.85 302.65 98.80 307.00 98.00 Z"/>
</g>
<g fill="#000000" fill-opacity="0.98" stroke="None">
<path d="
M 159.00 60.00 
C 135.64 64.77 127.34 95.34 143.10 110.90 C 158.85 126.46 185.70 119.90 192.87 99.92 C 200.04 79.93 181.11 55.49 159.00 60.00
M 162.00 80.00 
C 174.55 77.15 179.45 96.56 166.75 99.80 C 154.05 103.04 149.77 82.78 162.00 80.00 Z"/>
</g>
<g fill="#000000" fill-opacity="0.95" stroke="None">
<path d="
M 308.00 62.00 
C 298.64 63.87 296.19 79.23 305.25 81.61 C 314.31 83.98 335.16 83.33 347.00 83.00 C 358.84 82.67 375.89 86.22 377.60 74.74 C 379.30 63.27 364.79 59.79 352.00 62.00 C 339.21 64.21 320.10 59.58 308.00 62.00 Z"/>
</g>
<g fill="#000000" fill-opacity="0.06" stroke="None">
<path d="
M 162.00 80.00 
C 149.77 82.78 154.05 103.04 166.75 99.80 C 179.45 96.56 174.55 77.15 162.00 80.00 Z"/>
</g>
<g fill="#000000" fill-opacity="0.96" stroke="None">
<path d="
M 307.00 98.00 
C 302.65 98.80 296.11 106.85 300.30 112.70 C 304.50 118.54 315.20 119.55 324.00 119.00 C 332.80 118.45 347.09 118.63 356.00 119.00 C 364.91 119.37 373.84 118.07 376.24 111.25 C 378.65 104.42 375.95 98.18 368.00 99.00 C 360.05 99.82 344.67 97.68 336.00 99.00 C 327.33 100.32 314.21 96.68 307.00 98.00 Z"/>
</g>
<g fill="#000000" fill-opacity="0.02" stroke="None">
<path d="
M 221.00 205.00 
C 212.05 205.24 201.80 205.04 193.25 204.19 C 184.71 203.34 188.70 196.05 187.00 189.00 C 185.30 181.95 192.53 165.44 183.00 164.00 C 173.47 162.56 167.16 164.50 156.25 164.20 C 145.33 163.90 137.10 159.88 128.00 156.00
C 128.00 166.33 128.00 176.67 128.00 187.00 C 128.00 197.33 128.00 207.67 128.00 218.00 C 128.00 228.33 128.00 238.68 128.00 249.00 C 128.00 259.32 127.99 269.69 128.00 280.00 C 128.01 290.31 127.98 300.73 128.00 311.00 C 128.02 321.27 127.95 331.81 128.00 342.00 C 128.05 352.19 127.90 362.97 128.00 373.00 C 128.10 383.03 127.77 394.35 128.00 404.00 C 128.23 413.65 124.39 427.85 136.00 427.00 C 147.61 426.15 156.00 427.44 167.00 427.00 C 178.00 426.56 187.17 427.33 198.00 427.00
C 190.94 415.76 192.35 403.97 192.00 386.00 C 191.65 368.03 192.69 346.71 192.00 328.00 C 191.31 309.29 210.99 314.32 228.00 314.00 C 245.01 313.68 269.02 314.34 286.00 314.00 C 302.98 313.66 325.09 310.46 320.00 332.00
C 331.69 334.92 355.32 325.24 356.40 340.26 C 357.48 355.27 357.90 375.03 356.93 390.92 C 355.96 406.81 331.37 397.75 320.00 400.00
C 321.13 412.17 318.38 418.82 315.00 427.00
C 326.22 425.94 342.26 428.42 353.00 427.00 C 363.74 425.58 383.44 432.71 384.00 420.00 C 384.56 407.29 383.75 394.66 384.00 382.00 C 384.25 369.34 383.88 356.59 384.00 344.00 C 384.12 331.41 383.95 319.57 384.00 307.00 C 384.05 294.43 383.98 281.60 384.00 269.00 C 384.02 256.40 383.99 243.59 384.00 231.00 C 384.01 218.41 383.99 205.53 384.00 193.00 C 384.01 180.47 384.00 168.48 384.00 156.00
C 376.68 159.55 379.48 157.48 371.90 160.88 C 364.32 164.29 351.53 165.11 339.00 164.00 C 326.47 162.89 324.99 165.63 325.00 175.00 C 325.01 184.37 325.64 191.08 325.19 197.75 C 324.74 204.41 320.84 203.76 315.00 205.00 C 309.16 206.24 297.38 204.07 291.00 205.00
C 288.15 216.66 297.84 246.70 282.74 246.60 C 267.64 246.50 243.64 246.68 228.75 246.39 C 213.87 246.10 224.19 216.50 221.00 205.00 Z"/>
</g>
<g fill="#000000" fill-opacity="0.04" stroke="None">
<path d="
M 306.00 164.00 
C 272.67 164.00 239.33 164.00 206.00 164.00
C 206.00 171.00 206.00 178.00 206.00 185.00
C 239.33 185.00 272.67 185.00 306.00 185.00
C 306.00 178.00 306.00 171.00 306.00 164.00 Z"/>
</g>
<g fill="#000000" fill-opacity="0.01" stroke="None">
<path d="
M 271.00 205.00 
C 261.00 205.00 251.00 205.00 241.00 205.00
C 241.00 212.33 241.00 219.67 241.00 227.00
C 251.00 227.00 261.00 227.00 271.00 227.00
C 271.00 219.67 271.00 212.33 271.00 205.00 Z"/>
</g>
<g fill="#000000" fill-opacity="0.01" stroke="None">
<path d="
M 301.00 334.00 
C 271.33 334.00 241.67 334.00 212.00 334.00
C 212.90 356.57 210.72 387.55 212.20 408.75 C 213.68 429.96 235.79 426.14 255.00 426.00 C 274.21 425.86 298.10 430.77 300.22 409.22 C 302.34 387.67 300.26 356.71 301.00 334.00 Z"/>
</g>
<g fill="#000000" fill-opacity="0.04" stroke="None">
<path d="
M 337.00 352.00 
C 331.33 352.00 325.67 352.00 320.00 352.00
C 320.00 361.67 320.00 371.33 320.00 381.00
C 325.67 381.00 331.33 381.00 337.00 381.00
C 337.00 371.33 337.00 361.67 337.00 352.00 Z"/>
</g>
<g fill="#000000" fill-opacity="0.00" stroke="None">
<path d="
M 426.00 492.00 
C 422.19 477.02 434.92 446.99 415.00 447.00 C 395.08 447.01 371.62 446.95 351.00 447.00 C 330.38 447.05 307.85 446.87 287.00 447.00 C 266.15 447.13 243.76 446.71 223.00 447.00 C 202.24 447.29 179.29 446.35 159.00 447.00 C 138.71 447.65 114.71 445.82 95.75 446.40 C 76.80 446.97 90.34 478.56 86.00 492.00
C 199.33 492.00 312.67 492.00 426.00 492.00 Z"/>
</g>
</svg>