<svg xmlns="http://www.w3.org/2000/svg" xmlns:v="https://svgstorm.com"
viewBox = "0 0 512 512"
width="512"
height="512">
<g fill="None" fill-opacity="0.0" stroke="#000000" stroke-opacity="0.00" stroke-width="0.3"><path d="
M 0.00 512.00 
L 512.00 512.00
L 512.00 0.00
L 0.00 0.00
L 0.00 512.00
M 366.00 469.00 
C 363.67 478.22 371.63 497.46 359.75 498.76 C 347.87 500.06 328.78 499.43 317.33 498.67 C 305.88 497.91 312.46 477.58 312.00 469.00
C 274.33 469.00 236.67 469.00 199.00 469.00
C 199.29 477.65 198.59 487.00 199.00 495.00
C 187.82 502.81 173.01 497.22 158.00 499.00 C 142.99 500.78 143.03 480.89 146.00 469.00
C 132.10 468.38 121.54 466.01 116.87 452.08 C 112.20 438.15 114.27 415.17 114.00 396.00 C 113.73 376.83 114.10 351.35 114.00 331.00 C 113.90 310.65 113.99 287.80 114.00 267.00 C 114.01 246.20 113.88 222.77 114.00 202.00 C 114.12 181.23 113.90 159.75 114.00 139.00 C 114.10 118.25 113.75 94.93 114.00 75.00 C 114.25 55.07 111.48 38.18 120.24 26.23 C 129.00 14.28 138.36 12.53 158.00 13.00 C 177.64 13.47 201.70 12.82 222.00 13.00 C 242.30 13.18 266.85 12.98 287.00 13.00 C 307.15 13.02 333.00 13.13 352.00 13.00 C 371.00 12.87 383.04 13.17 392.23 24.77 C 401.42 36.37 397.03 52.23 398.00 72.00 C 398.97 91.77 397.57 116.36 398.00 137.00 C 398.43 157.64 397.84 180.04 398.00 201.00 C 398.16 221.96 398.00 245.09 398.00 266.00 C 398.00 286.91 398.15 310.64 398.00 331.00 C 397.85 351.36 398.41 375.99 398.00 395.00 C 397.59 414.01 399.92 437.76 395.61 451.75 C 391.30 465.74 379.50 468.49 366.00 469.00 Z"/>
</g>
<g fill="None" fill-opacity="0.0" stroke="#000000" stroke-opacity="0.95" stroke-width="0.3"><path d="
M 366.00 469.00 
C 379.50 468.49 391.30 465.74 395.61 451.75 C 399.92 437.76 397.59 414.01 398.00 395.00 C 398.41 375.99 397.85 351.36 398.00 331.00 C 398.15 310.64 398.00 286.91 398.00 266.00 C 398.00 245.09 398.16 221.96 398.00 201.00 C 397.84 180.04 398.43 157.64 398.00 137.00 C 397.57 116.36 398.97 91.77 398.00 72.00 C 397.03 52.23 401.42 36.37 392.23 24.77 C 383.04 13.17 371.00 12.87 352.00 13.00 C 333.00 13.13 307.15 13.02 287.00 13.00 C 266.85 12.98 242.30 13.18 222.00 13.00 C 201.70 12.82 177.64 13.47 158.00 13.00 C 138.36 12.53 129.00 14.28 120.24 26.23 C 111.48 38.18 114.25 55.07 114.00 75.00 C 113.75 94.93 114.10 118.25 114.00 139.00 C 113.90 159.75 114.12 181.23 114.00 202.00 C 113.88 222.77 114.01 246.20 114.00 267.00 C 113.99 287.80 113.90 310.65 114.00 331.00 C 114.10 351.35 113.73 376.83 114.00 396.00 C 114.27 415.17 112.20 438.15 116.87 452.08 C 121.54 466.01 132.10 468.38 146.00 469.00
C 143.03 480.89 142.99 500.78 158.00 499.00 C 173.01 497.22 187.82 502.81 199.00 495.00
C 198.59 487.00 199.29 477.65 199.00 469.00
C 236.67 469.00 274.33 469.00 312.00 469.00
C 312.46 477.58 305.88 497.91 317.33 498.67 C 328.78 499.43 347.87 500.06 359.75 498.76 C 371.63 497.46 363.67 478.22 366.00 469.00
M 384.00 176.00 
C 298.67 176.00 213.33 176.00 128.00 176.00
C 127.88 155.04 128.16 132.83 128.00 112.00 C 127.84 91.17 128.30 68.37 128.00 48.00 C 127.70 27.63 138.99 26.59 159.00 27.00 C 179.01 27.41 202.42 26.86 223.00 27.00 C 243.58 27.14 267.46 27.03 288.00 27.00 C 308.54 26.97 332.18 27.23 352.00 27.00 C 371.82 26.77 384.00 26.62 384.00 47.00 C 384.00 67.38 384.00 90.05 384.00 111.00 C 384.00 131.95 384.00 154.87 384.00 176.00
M 384.00 189.00 
C 382.27 215.53 382.86 243.04 383.00 270.00 C 383.14 296.96 382.35 325.15 383.00 352.00 C 383.65 378.85 381.43 408.67 383.00 435.00 C 384.57 461.33 362.92 456.22 338.00 456.00 C 313.08 455.78 281.45 455.22 256.00 455.00 C 230.55 454.78 199.17 456.34 175.00 456.00 C 150.83 455.66 128.26 462.48 128.00 437.00 C 127.74 411.52 128.12 380.56 128.00 354.00 C 127.88 327.44 128.06 299.04 128.00 272.00 C 127.94 244.96 128.05 216.19 128.00 189.00
C 213.33 189.00 298.67 189.00 384.00 189.00
M 159.00 485.00 
C 159.00 479.67 159.00 474.33 159.00 469.00
C 169.23 471.49 185.99 462.47 186.00 477.00 C 186.01 491.53 169.21 482.51 159.00 485.00
M 353.00 469.00 
C 353.00 474.33 353.00 479.67 353.00 485.00
C 343.67 485.00 334.33 485.00 325.00 485.00
C 325.00 479.67 325.00 474.33 325.00 469.00
C 334.33 469.00 343.67 469.00 353.00 469.00 Z"/>
</g>
<g fill="None" fill-opacity="0.0" stroke="#000000" stroke-opacity="0.01" stroke-width="0.3"><path d="
M 384.00 176.00 
C 384.00 154.87 384.00 131.95 384.00 111.00 C 384.00 90.05 384.00 67.38 384.00 47.00 C 384.00 26.62 371.82 26.77 352.00 27.00 C 332.18 27.23 308.54 26.97 288.00 27.00 C 267.46 27.03 243.58 27.14 223.00 27.00 C 202.42 26.86 179.01 27.41 159.00 27.00 C 138.99 26.59 127.70 27.63 128.00 48.00 C 128.30 68.37 127.84 91.17 128.00 112.00 C 128.16 132.83 127.88 155.04 128.00 176.00
C 213.33 176.00 298.67 176.00 384.00 176.00
M 168.00 74.00 
C 175.61 88.31 171.99 115.29 170.00 130.00
C 164.44 133.05 161.06 130.99 157.00 128.00
C 156.88 117.15 157.32 103.39 157.00 92.00 C 156.68 80.61 156.48 72.80 168.00 74.00 Z"/>
</g>
<g fill="None" fill-opacity="0.0" stroke="#000000" stroke-opacity="0.92" stroke-width="0.3"><path d="
M 168.00 74.00 
C 156.48 72.80 156.68 80.61 157.00 92.00 C 157.32 103.39 156.88 117.15 157.00 128.00
C 161.06 130.99 164.44 133.05 170.00 130.00
C 171.99 115.29 175.61 88.31 168.00 74.00 Z"/>
</g>
<g fill="None" fill-opacity="0.0" stroke="#000000" stroke-opacity="0.00" stroke-width="0.3"><path d="
M 384.00 189.00 
C 298.67 189.00 213.33 189.00 128.00 189.00
C 128.05 216.19 127.94 244.96 128.00 272.00 C 128.06 299.04 127.88 327.44 128.00 354.00 C 128.12 380.56 127.74 411.52 128.00 437.00 C 128.26 462.48 150.83 455.66 175.00 456.00 C 199.17 456.34 230.55 454.78 256.00 455.00 C 281.45 455.22 313.08 455.78 338.00 456.00 C 362.92 456.22 384.57 461.33 383.00 435.00 C 381.43 408.67 383.65 378.85 383.00 352.00 C 382.35 325.15 383.14 296.96 383.00 270.00 C 382.86 243.04 382.27 215.53 384.00 189.00
M 161.00 375.00 
C 153.36 365.56 158.26 348.28 157.00 335.00 C 155.74 321.72 158.45 300.57 157.00 288.00 C 155.55 275.43 156.57 256.70 167.30 262.71 C 178.03 268.73 170.25 287.23 172.00 300.00 C 173.75 312.77 171.16 333.97 172.00 347.00 C 172.84 360.03 174.28 376.01 161.00 375.00 Z"/>
</g>
<g fill="None" fill-opacity="0.0" stroke="#000000" stroke-opacity="0.92" stroke-width="0.3"><path d="
M 161.00 375.00 
C 174.28 376.01 172.84 360.03 172.00 347.00 C 171.16 333.97 173.75 312.77 172.00 300.00 C 170.25 287.23 178.03 268.73 167.30 262.71 C 156.57 256.70 155.55 275.43 157.00 288.00 C 158.45 300.57 155.74 321.72 157.00 335.00 C 158.26 348.28 153.36 365.56 161.00 375.00 Z"/>
</g>
<g fill="None" fill-opacity="0.0" stroke="#000000" stroke-opacity="0.13" stroke-width="0.3"><path d="
M 159.00 485.00 
C 169.21 482.51 186.01 491.53 186.00 477.00 C 185.99 462.47 169.23 471.49 159.00 469.00
C 159.00 474.33 159.00 479.67 159.00 485.00 Z"/>
</g>
<g fill="None" fill-opacity="0.0" stroke="#000000" stroke-opacity="0.10" stroke-width="0.3"><path d="
M 353.00 469.00 
C 343.67 469.00 334.33 469.00 325.00 469.00
C 325.00 474.33 325.00 479.67 325.00 485.00
C 334.33 485.00 343.67 485.00 353.00 485.00
C 353.00 479.67 353.00 474.33 353.00 469.00 Z"/>
</g>
<g fill="#000000" fill-opacity="0.00" stroke="None">
<path d="
M 0.00 512.00 
L 512.00 512.00
L 512.00 0.00
L 0.00 0.00
L 0.00 512.00
M 366.00 469.00 
C 363.67 478.22 371.63 497.46 359.75 498.76 C 347.87 500.06 328.78 499.43 317.33 498.67 C 305.88 497.91 312.46 477.58 312.00 469.00
C 274.33 469.00 236.67 469.00 199.00 469.00
C 199.29 477.65 198.59 487.00 199.00 495.00
C 187.82 502.81 173.01 497.22 158.00 499.00 C 142.99 500.78 143.03 480.89 146.00 469.00
C 132.10 468.38 121.54 466.01 116.87 452.08 C 112.20 438.15 114.27 415.17 114.00 396.00 C 113.73 376.83 114.10 351.35 114.00 331.00 C 113.90 310.65 113.99 287.80 114.00 267.00 C 114.01 246.20 113.88 222.77 114.00 202.00 C 114.12 181.23 113.90 159.75 114.00 139.00 C 114.10 118.25 113.75 94.93 114.00 75.00 C 114.25 55.07 111.48 38.18 120.24 26.23 C 129.00 14.28 138.36 12.53 158.00 13.00 C 177.64 13.47 201.70 12.82 222.00 13.00 C 242.30 13.18 266.85 12.98 287.00 13.00 C 307.15 13.02 333.00 13.13 352.00 13.00 C 371.00 12.87 383.04 13.17 392.23 24.77 C 401.42 36.37 397.03 52.23 398.00 72.00 C 398.97 91.77 397.57 116.36 398.00 137.00 C 398.43 157.64 397.84 180.04 398.00 201.00 C 398.16 221.96 398.00 245.09 398.00 266.00 C 398.00 286.91 398.15 310.64 398.00 331.00 C 397.85 351.36 398.41 375.99 398.00 395.00 C 397.59 414.01 399.92 437.76 395.61 451.75 C 391.30 465.74 379.50 468.49 366.00 469.00 Z"/>
</g>
<g fill="#000000" fill-opacity="0.95" stroke="None">
<path d="
M 366.00 469.00 
C 379.50 468.49 391.30 465.74 395.61 451.75 C 399.92 437.76 397.59 414.01 398.00 395.00 C 398.41 375.99 397.85 351.36 398.00 331.00 C 398.15 310.64 398.00 286.91 398.00 266.00 C 398.00 245.09 398.16 221.96 398.00 201.00 C 397.84 180.04 398.43 157.64 398.00 137.00 C 397.57 116.36 398.97 91.77 398.00 72.00 C 397.03 52.23 401.42 36.37 392.23 24.77 C 383.04 13.17 371.00 12.87 352.00 13.00 C 333.00 13.13 307.15 13.02 287.00 13.00 C 266.85 12.98 242.30 13.18 222.00 13.00 C 201.70 12.82 177.64 13.47 158.00 13.00 C 138.36 12.53 129.00 14.28 120.24 26.23 C 111.48 38.18 114.25 55.07 114.00 75.00 C 113.75 94.93 114.10 118.25 114.00 139.00 C 113.90 159.75 114.12 181.23 114.00 202.00 C 113.88 222.77 114.01 246.20 114.00 267.00 C 113.99 287.80 113.90 310.65 114.00 331.00 C 114.10 351.35 113.73 376.83 114.00 396.00 C 114.27 415.17 112.20 438.15 116.87 452.08 C 121.54 466.01 132.10 468.38 146.00 469.00
C 143.03 480.89 142.99 500.78 158.00 499.00 C 173.01 497.22 187.82 502.81 199.00 495.00
C 198.59 487.00 199.29 477.65 199.00 469.00
C 236.67 469.00 274.33 469.00 312.00 469.00
C 312.46 477.58 305.88 497.91 317.33 498.67 C 328.78 499.43 347.87 500.06 359.75 498.76 C 371.63 497.46 363.67 478.22 366.00 469.00
M 384.00 176.00 
C 298.67 176.00 213.33 176.00 128.00 176.00
C 127.88 155.04 128.16 132.83 128.00 112.00 C 127.84 91.17 128.30 68.37 128.00 48.00 C 127.70 27.63 138.99 26.59 159.00 27.00 C 179.01 27.41 202.42 26.86 223.00 27.00 C 243.58 27.14 267.46 27.03 288.00 27.00 C 308.54 26.97 332.18 27.23 352.00 27.00 C 371.82 26.77 384.00 26.62 384.00 47.00 C 384.00 67.38 384.00 90.05 384.00 111.00 C 384.00 131.95 384.00 154.87 384.00 176.00
M 384.00 189.00 
C 382.27 215.53 382.86 243.04 383.00 270.00 C 383.14 296.96 382.35 325.15 383.00 352.00 C 383.65 378.85 381.43 408.67 383.00 435.00 C 384.57 461.33 362.92 456.22 338.00 456.00 C 313.08 455.78 281.45 455.22 256.00 455.00 C 230.55 454.78 199.17 456.34 175.00 456.00 C 150.83 455.66 128.26 462.48 128.00 437.00 C 127.74 411.52 128.12 380.56 128.00 354.00 C 127.88 327.44 128.06 299.04 128.00 272.00 C 127.94 244.96 128.05 216.19 128.00 189.00
C 213.33 189.00 298.67 189.00 384.00 189.00
M 159.00 485.00 
C 159.00 479.67 159.00 474.33 159.00 469.00
C 169.23 471.49 185.99 462.47 186.00 477.00 C 186.01 491.53 169.21 482.51 159.00 485.00
M 353.00 469.00 
C 353.00 474.33 353.00 479.67 353.00 485.00
C 343.67 485.00 334.33 485.00 325.00 485.00
C 325.00 479.67 325.00 474.33 325.00 469.00
C 334.33 469.00 343.67 469.00 353.00 469.00 Z"/>
</g>
<g fill="#000000" fill-opacity="0.01" stroke="None">
<path d="
M 384.00 176.00 
C 384.00 154.87 384.00 131.95 384.00 111.00 C 384.00 90.05 384.00 67.38 384.00 47.00 C 384.00 26.62 371.82 26.77 352.00 27.00 C 332.18 27.23 308.54 26.97 288.00 27.00 C 267.46 27.03 243.58 27.14 223.00 27.00 C 202.42 26.86 179.01 27.41 159.00 27.00 C 138.99 26.59 127.70 27.63 128.00 48.00 C 128.30 68.37 127.84 91.17 128.00 112.00 C 128.16 132.83 127.88 155.04 128.00 176.00
C 213.33 176.00 298.67 176.00 384.00 176.00
M 168.00 74.00 
C 175.61 88.31 171.99 115.29 170.00 130.00
C 164.44 133.05 161.06 130.99 157.00 128.00
C 156.88 117.15 157.32 103.39 157.00 92.00 C 156.68 80.61 156.48 72.80 168.00 74.00 Z"/>
</g>
<g fill="#000000" fill-opacity="0.92" stroke="None">
<path d="
M 168.00 74.00 
C 156.48 72.80 156.68 80.61 157.00 92.00 C 157.32 103.39 156.88 117.15 157.00 128.00
C 161.06 130.99 164.44 133.05 170.00 130.00
C 171.99 115.29 175.61 88.31 168.00 74.00 Z"/>
</g>
<g fill="#000000" fill-opacity="0.00" stroke="None">
<path d="
M 384.00 189.00 
C 298.67 189.00 213.33 189.00 128.00 189.00
C 128.05 216.19 127.94 244.96 128.00 272.00 C 128.06 299.04 127.88 327.44 128.00 354.00 C 128.12 380.56 127.74 411.52 128.00 437.00 C 128.26 462.48 150.83 455.66 175.00 456.00 C 199.17 456.34 230.55 454.78 256.00 455.00 C 281.45 455.22 313.08 455.78 338.00 456.00 C 362.92 456.22 384.57 461.33 383.00 435.00 C 381.43 408.67 383.65 378.85 383.00 352.00 C 382.35 325.15 383.14 296.96 383.00 270.00 C 382.86 243.04 382.27 215.53 384.00 189.00
M 161.00 375.00 
C 153.36 365.56 158.26 348.28 157.00 335.00 C 155.74 321.72 158.45 300.57 157.00 288.00 C 155.55 275.43 156.57 256.70 167.30 262.71 C 178.03 268.73 170.25 287.23 172.00 300.00 C 173.75 312.77 171.16 333.97 172.00 347.00 C 172.84 360.03 174.28 376.01 161.00 375.00 Z"/>
</g>
<g fill="#000000" fill-opacity="0.92" stroke="None">
<path d="
M 161.00 375.00 
C 174.28 376.01 172.84 360.03 172.00 347.00 C 171.16 333.97 173.75 312.77 172.00 300.00 C 170.25 287.23 178.03 268.73 167.30 262.71 C 156.57 256.70 155.55 275.43 157.00 288.00 C 158.45 300.57 155.74 321.72 157.00 335.00 C 158.26 348.28 153.36 365.56 161.00 375.00 Z"/>
</g>
<g fill="#000000" fill-opacity="0.13" stroke="None">
<path d="
M 159.00 485.00 
C 169.21 482.51 186.01 491.53 186.00 477.00 C 185.99 462.47 169.23 471.49 159.00 469.00
C 159.00 474.33 159.00 479.67 159.00 485.00 Z"/>
</g>
<g fill="#000000" fill-opacity="0.10" stroke="None">
<path d="
M 353.00 469.00 
C 343.67 469.00 334.33 469.00 325.00 469.00
C 325.00 474.33 325.00 479.67 325.00 485.00
C 334.33 485.00 343.67 485.00 353.00 485.00
C 353.00 479.67 353.00 474.33 353.00 469.00 Z"/>
</g>
</svg>