<svg xmlns="http://www.w3.org/2000/svg" xmlns:v="https://svgstorm.com"
viewBox = "0 0 225 225"
width="225"
height="225">
<g fill="None" fill-opacity="0.0" stroke="#FDFDFD" stroke-opacity="1.00" stroke-width="0.3"><path d="
M 0.00 225.00 
L 65.00 225.00
C 48.13 209.77 42.94 188.43 36.02 166.98 C 29.11 145.52 35.22 115.79 47.77 97.77 C 60.32 79.75 65.17 51.35 92.00 55.00
C 90.11 52.73 88.11 49.34 85.00 49.00
C 84.19 48.89 81.24 49.26 80.00 49.00
C 75.80 48.68 71.34 46.68 69.00 43.00
C 61.33 47.43 51.30 43.95 46.70 37.30 C 42.09 30.66 42.78 18.63 50.25 14.25 C 57.71 9.87 60.74 2.90 69.00 0.00
L 0.00 0.00
L 0.00 225.00 Z"/>
</g>
<g fill="None" fill-opacity="0.0" stroke="#000000" stroke-opacity="1.00" stroke-width="0.3"><path d="
M 80.00 49.00 
C 81.63 49.13 83.39 48.73 85.00 49.00
C 88.11 49.34 90.11 52.73 92.00 55.00
C 65.17 51.35 60.32 79.75 47.77 97.77 C 35.22 115.79 29.11 145.52 36.02 166.98 C 42.94 188.43 48.13 209.77 65.00 225.00
L 133.00 225.00
C 135.02 222.17 134.04 220.42 132.00 219.00
C 126.01 216.20 116.62 220.43 110.00 219.00 C 103.38 217.57 94.78 220.01 88.00 219.00 C 81.22 217.99 72.92 220.70 67.00 218.00
C 59.86 214.74 58.20 203.83 53.69 197.31 C 49.19 190.78 47.21 180.32 44.00 173.00
C 88.60 171.33 136.47 171.33 181.00 173.00
C 177.90 180.37 175.72 190.66 171.23 197.23 C 166.74 203.80 165.22 214.70 158.00 218.00
C 154.35 219.67 148.64 217.31 145.00 219.00
C 142.26 220.92 143.09 222.68 145.00 225.00
L 160.00 225.00
C 176.19 210.23 181.88 189.47 188.78 168.78 C 195.67 148.08 190.87 117.84 178.70 100.31 C 166.52 82.77 161.86 55.97 138.00 55.00
C 140.68 47.41 148.63 52.08 153.69 48.69 C 158.76 45.31 163.48 43.88 169.25 42.25 C 175.01 40.61 174.93 29.99 172.25 26.75 C 169.56 23.52 160.61 16.62 157.10 24.10 C 153.60 31.58 166.14 23.40 167.77 31.23 C 169.39 39.06 159.72 34.95 155.77 38.77 C 151.82 42.60 146.01 43.81 140.78 43.78 C 135.54 43.76 133.30 53.65 128.00 54.00
C 130.47 46.25 133.32 43.45 125.77 38.23 C 118.22 33.01 129.26 26.03 133.07 26.93 C 136.89 27.83 149.21 23.86 148.97 18.97 C 148.73 14.08 137.59 19.58 133.75 20.19 C 129.92 20.80 119.02 21.00 118.08 28.08 C 117.14 35.16 116.91 40.98 124.00 44.00
C 123.92 47.91 121.57 51.19 121.00 55.00
C 108.15 59.11 106.17 48.09 103.00 39.00
C 113.54 28.74 103.30 7.56 88.00 11.00
C 86.86 5.08 80.64 2.11 76.00 0.00
L 69.00 0.00
C 60.74 2.90 57.71 9.87 50.25 14.25 C 42.78 18.63 42.09 30.66 46.70 37.30 C 51.30 43.95 61.33 47.43 69.00 43.00
C 71.34 46.68 75.80 48.68 80.00 49.00
M 101.00 53.00 
C 94.27 51.70 93.13 40.61 85.00 43.00 C 76.86 45.39 74.02 34.12 66.78 36.78 C 59.54 39.44 52.78 38.34 50.08 29.92 C 47.37 21.51 57.73 19.07 61.25 15.25 C 64.76 11.42 70.55 1.87 76.68 7.32 C 82.80 12.77 84.79 17.22 93.00 17.00 C 101.21 16.78 103.19 28.58 99.23 33.23 C 95.27 37.88 99.39 47.52 101.00 53.00
M 162.00 85.00 
C 129.00 85.00 96.00 85.00 63.00 85.00
C 69.75 74.13 72.81 60.45 88.00 61.00 C 103.19 61.55 121.81 61.55 137.00 61.00 C 152.19 60.45 155.24 74.12 162.00 85.00
M 95.00 149.00 
C 92.37 149.24 89.61 148.63 87.00 149.00
C 79.16 151.12 76.85 157.72 78.00 166.00
C 66.00 166.00 54.00 166.00 42.00 166.00
C 41.17 157.53 37.16 144.82 39.33 136.33 C 41.50 127.84 43.13 118.71 47.77 111.77 C 52.41 104.83 51.97 93.90 61.01 92.01 C 70.04 90.12 85.39 93.41 95.00 92.00
C 98.41 94.38 95.54 105.37 96.00 110.00 C 96.46 114.63 96.53 125.15 96.00 130.00 C 95.47 134.85 98.33 145.80 95.00 149.00
M 129.00 101.00 
C 130.20 98.41 127.34 93.86 130.00 92.00
C 134.83 88.62 146.07 93.74 152.00 92.00 C 157.93 90.26 166.78 91.30 169.30 96.70 C 171.83 102.09 174.52 105.62 176.92 111.08 C 179.33 116.53 181.18 121.17 182.98 127.02 C 184.77 132.88 186.74 139.29 186.00 146.00 C 185.26 152.71 184.18 159.37 183.00 166.00
C 171.00 166.00 159.00 166.00 147.00 166.00
C 147.76 159.15 146.33 149.38 138.00 149.00
C 135.39 148.63 132.63 149.24 130.00 149.00
C 126.22 145.36 130.73 136.97 129.00 132.00 C 127.27 127.03 131.28 117.85 129.00 113.00
C 124.35 106.53 121.35 120.88 123.00 126.00 C 124.65 131.12 121.76 143.24 123.00 149.00
C 116.00 149.00 109.00 149.00 102.00 149.00
C 102.00 130.00 102.00 111.00 102.00 92.00
C 109.00 92.00 116.00 92.00 123.00 92.00
C 121.66 96.06 123.89 107.03 129.00 101.00
M 140.00 166.00 
C 121.67 166.00 103.33 166.00 85.00 166.00
C 80.69 150.20 101.99 154.82 112.00 155.00 C 122.01 155.18 144.35 149.72 140.00 166.00 Z"/>
</g>
<g fill="None" fill-opacity="0.0" stroke="#FDFDFD" stroke-opacity="1.00" stroke-width="0.3"><path d="
M 160.00 225.00 
L 225.00 225.00
L 225.00 0.00
L 76.00 0.00
C 80.64 2.11 86.86 5.08 88.00 11.00
C 103.30 7.56 113.54 28.74 103.00 39.00
C 106.17 48.09 108.15 59.11 121.00 55.00
C 121.57 51.19 123.92 47.91 124.00 44.00
C 116.91 40.98 117.14 35.16 118.08 28.08 C 119.02 21.00 129.92 20.80 133.75 20.19 C 137.59 19.58 148.73 14.08 148.97 18.97 C 149.21 23.86 136.89 27.83 133.07 26.93 C 129.26 26.03 118.22 33.01 125.77 38.23 C 133.32 43.45 130.47 46.25 128.00 54.00
C 133.30 53.65 135.54 43.76 140.78 43.78 C 146.01 43.81 151.82 42.60 155.77 38.77 C 159.72 34.95 169.39 39.06 167.77 31.23 C 166.14 23.40 153.60 31.58 157.10 24.10 C 160.61 16.62 169.56 23.52 172.25 26.75 C 174.93 29.99 175.01 40.61 169.25 42.25 C 163.48 43.88 158.76 45.31 153.69 48.69 C 148.63 52.08 140.68 47.41 138.00 55.00
C 161.86 55.97 166.52 82.77 178.70 100.31 C 190.87 117.84 195.67 148.08 188.78 168.78 C 181.88 189.47 176.19 210.23 160.00 225.00 Z"/>
</g>
<g fill="None" fill-opacity="0.0" stroke="#F9F9F9" stroke-opacity="1.00" stroke-width="0.3"><path d="
M 101.00 53.00 
C 99.39 47.52 95.27 37.88 99.23 33.23 C 103.19 28.58 101.21 16.78 93.00 17.00 C 84.79 17.22 82.80 12.77 76.68 7.32 C 70.55 1.87 64.76 11.42 61.25 15.25 C 57.73 19.07 47.37 21.51 50.08 29.92 C 52.78 38.34 59.54 39.44 66.78 36.78 C 74.02 34.12 76.86 45.39 85.00 43.00 C 93.13 40.61 94.27 51.70 101.00 53.00 Z"/>
</g>
<g fill="None" fill-opacity="0.0" stroke="#7E7E7E" stroke-opacity="1.00" stroke-width="0.3"><path d="
M 85.00 49.00 
C 83.39 48.73 81.63 49.13 80.00 49.00
C 81.24 49.26 84.19 48.89 85.00 49.00 Z"/>
</g>
<g fill="None" fill-opacity="0.0" stroke="#FCFCFC" stroke-opacity="1.00" stroke-width="0.3"><path d="
M 162.00 85.00 
C 155.24 74.12 152.19 60.45 137.00 61.00 C 121.81 61.55 103.19 61.55 88.00 61.00 C 72.81 60.45 69.75 74.13 63.00 85.00
C 96.00 85.00 129.00 85.00 162.00 85.00 Z"/>
</g>
<g fill="None" fill-opacity="0.0" stroke="#FDFDFD" stroke-opacity="1.00" stroke-width="0.3"><path d="
M 87.00 149.00 
C 89.34 148.37 92.02 147.73 95.00 148.00
C 95.00 129.33 95.00 110.67 95.00 92.00
C 85.39 93.41 70.04 90.12 61.01 92.01 C 51.97 93.90 52.41 104.83 47.77 111.77 C 43.13 118.71 41.50 127.84 39.33 136.33 C 37.16 144.82 41.17 157.53 42.00 166.00
C 54.00 166.00 66.00 166.00 78.00 166.00
C 76.85 157.72 79.16 151.12 87.00 149.00 Z"/>
</g>
<g fill="None" fill-opacity="0.0" stroke="#656565" stroke-opacity="1.00" stroke-width="0.3"><path d="
M 95.00 148.00 
C 95.00 148.50 95.00 149.00 95.00 149.00
C 98.33 145.80 95.47 134.85 96.00 130.00 C 96.53 125.15 96.46 114.63 96.00 110.00 C 95.54 105.37 98.41 94.38 95.00 92.00
C 95.00 110.67 95.00 129.33 95.00 148.00 Z"/>
</g>
<g fill="None" fill-opacity="0.0" stroke="#FDFDFD" stroke-opacity="1.00" stroke-width="0.3"><path d="
M 129.00 113.00 
C 131.94 117.09 129.45 124.68 130.00 130.00 C 130.55 135.32 130.00 142.51 130.00 148.00
C 133.02 147.73 135.68 148.37 138.00 149.00
C 146.33 149.38 147.76 159.15 147.00 166.00
C 159.00 166.00 171.00 166.00 183.00 166.00
C 184.18 159.37 185.26 152.71 186.00 146.00 C 186.74 139.29 184.77 132.88 182.98 127.02 C 181.18 121.17 179.33 116.53 176.92 111.08 C 174.52 105.62 171.83 102.09 169.30 96.70 C 166.78 91.30 157.93 90.26 152.00 92.00 C 146.07 93.74 134.83 88.62 130.00 92.00
C 129.82 95.13 130.69 98.60 129.00 101.00
C 123.89 107.03 121.66 96.06 123.00 92.00
C 116.00 92.00 109.00 92.00 102.00 92.00
C 102.00 111.00 102.00 130.00 102.00 149.00
C 109.00 149.00 116.00 149.00 123.00 149.00
C 121.76 143.24 124.65 131.12 123.00 126.00 C 121.35 120.88 124.35 106.53 129.00 113.00 Z"/>
</g>
<g fill="None" fill-opacity="0.0" stroke="#696969" stroke-opacity="1.00" stroke-width="0.3"><path d="
M 129.00 101.00 
C 130.69 98.60 129.82 95.13 130.00 92.00
C 127.34 93.86 130.20 98.41 129.00 101.00 Z"/>
</g>
<g fill="None" fill-opacity="0.0" stroke="#666666" stroke-opacity="1.00" stroke-width="0.3"><path d="
M 130.00 149.00 
C 129.96 149.00 130.00 148.00 130.00 148.00
C 130.00 142.51 130.55 135.32 130.00 130.00 C 129.45 124.68 131.94 117.09 129.00 113.00
C 131.28 117.85 127.27 127.03 129.00 132.00 C 130.73 136.97 126.22 145.36 130.00 149.00 Z"/>
</g>
<g fill="None" fill-opacity="0.0" stroke="#BFBFBF" stroke-opacity="1.00" stroke-width="0.3"><path d="
M 87.00 149.00 
C 89.61 148.63 92.37 149.24 95.00 149.00
C 95.00 149.00 95.00 148.50 95.00 148.00
C 92.02 147.73 89.34 148.37 87.00 149.00 Z"/>
</g>
<g fill="None" fill-opacity="0.0" stroke="#BFBFBF" stroke-opacity="1.00" stroke-width="0.3"><path d="
M 130.00 149.00 
C 132.63 149.24 135.39 148.63 138.00 149.00
C 135.68 148.37 133.02 147.73 130.00 148.00
C 130.00 148.00 129.96 149.00 130.00 149.00 Z"/>
</g>
<g fill="None" fill-opacity="0.0" stroke="#FAFAFA" stroke-opacity="1.00" stroke-width="0.3"><path d="
M 140.00 166.00 
C 144.35 149.72 122.01 155.18 112.00 155.00 C 101.99 154.82 80.69 150.20 85.00 166.00
C 103.33 166.00 121.67 166.00 140.00 166.00 Z"/>
</g>
<g fill="None" fill-opacity="0.0" stroke="#656565" stroke-opacity="1.00" stroke-width="0.3"><path d="
M 44.00 173.00 
C 89.67 173.00 135.33 173.00 181.00 173.00
C 136.47 171.33 88.60 171.33 44.00 173.00 Z"/>
</g>
<g fill="None" fill-opacity="0.0" stroke="#FCFCFC" stroke-opacity="1.00" stroke-width="0.3"><path d="
M 67.00 218.00 
C 76.63 220.80 90.47 215.46 100.00 218.00 C 109.53 220.54 124.23 213.58 132.00 219.00
C 134.04 220.42 135.02 222.17 133.00 225.00
L 145.00 225.00
C 143.09 222.68 142.26 220.92 145.00 219.00
C 148.52 216.53 153.87 219.20 158.00 218.00
C 165.22 214.70 166.74 203.80 171.23 197.23 C 175.72 190.66 177.90 180.37 181.00 173.00
C 135.33 173.00 89.67 173.00 44.00 173.00
C 47.21 180.32 49.19 190.78 53.69 197.31 C 58.20 203.83 59.86 214.74 67.00 218.00
M 117.00 179.00 
C 137.51 184.08 126.97 219.72 106.33 211.67 C 85.69 203.62 96.13 173.83 117.00 179.00
M 80.00 191.00 
C 85.51 193.52 80.59 203.67 74.93 200.07 C 69.26 196.48 74.65 188.55 80.00 191.00
M 149.00 191.00 
C 153.91 193.34 149.68 203.48 143.93 200.07 C 138.18 196.66 143.02 188.15 149.00 191.00 Z"/>
</g>
<g fill="None" fill-opacity="0.0" stroke="#000000" stroke-opacity="1.00" stroke-width="0.3"><path d="
M 117.00 179.00 
C 96.13 173.83 85.69 203.62 106.33 211.67 C 126.97 219.72 137.51 184.08 117.00 179.00
M 115.00 185.00 
C 127.67 188.40 121.38 210.49 108.33 205.67 C 95.27 200.85 102.14 181.55 115.00 185.00 Z"/>
</g>
<g fill="None" fill-opacity="0.0" stroke="#F8F8F8" stroke-opacity="1.00" stroke-width="0.3"><path d="
M 115.00 185.00 
C 102.14 181.55 95.27 200.85 108.33 205.67 C 121.38 210.49 127.67 188.40 115.00 185.00 Z"/>
</g>
<g fill="None" fill-opacity="0.0" stroke="#000000" stroke-opacity="1.00" stroke-width="0.3"><path d="
M 80.00 191.00 
C 74.65 188.55 69.26 196.48 74.93 200.07 C 80.59 203.67 85.51 193.52 80.00 191.00 Z"/>
</g>
<g fill="None" fill-opacity="0.0" stroke="#000000" stroke-opacity="1.00" stroke-width="0.3"><path d="
M 149.00 191.00 
C 143.02 188.15 138.18 196.66 143.93 200.07 C 149.68 203.48 153.91 193.34 149.00 191.00 Z"/>
</g>
<g fill="None" fill-opacity="0.0" stroke="#8E8E8E" stroke-opacity="1.00" stroke-width="0.3"><path d="
M 132.00 219.00 
C 124.23 213.58 109.53 220.54 100.00 218.00 C 90.47 215.46 76.63 220.80 67.00 218.00
C 72.92 220.70 81.22 217.99 88.00 219.00 C 94.78 220.01 103.38 217.57 110.00 219.00 C 116.62 220.43 126.01 216.20 132.00 219.00 Z"/>
</g>
<g fill="None" fill-opacity="0.0" stroke="#8E8E8E" stroke-opacity="1.00" stroke-width="0.3"><path d="
M 145.00 219.00 
C 148.64 217.31 154.35 219.67 158.00 218.00
C 153.87 219.20 148.52 216.53 145.00 219.00 Z"/>
</g>
<g fill="#FDFDFD" fill-opacity="1.00" stroke="None">
<path d="
M 0.00 225.00 
L 65.00 225.00
C 48.13 209.77 42.94 188.43 36.02 166.98 C 29.11 145.52 35.22 115.79 47.77 97.77 C 60.32 79.75 65.17 51.35 92.00 55.00
C 90.11 52.73 88.11 49.34 85.00 49.00
C 84.19 48.89 81.24 49.26 80.00 49.00
C 75.80 48.68 71.34 46.68 69.00 43.00
C 61.33 47.43 51.30 43.95 46.70 37.30 C 42.09 30.66 42.78 18.63 50.25 14.25 C 57.71 9.87 60.74 2.90 69.00 0.00
L 0.00 0.00
L 0.00 225.00 Z"/>
</g>
<g fill="#000000" fill-opacity="1.00" stroke="None">
<path d="
M 80.00 49.00 
C 81.63 49.13 83.39 48.73 85.00 49.00
C 88.11 49.34 90.11 52.73 92.00 55.00
C 65.17 51.35 60.32 79.75 47.77 97.77 C 35.22 115.79 29.11 145.52 36.02 166.98 C 42.94 188.43 48.13 209.77 65.00 225.00
L 133.00 225.00
C 135.02 222.17 134.04 220.42 132.00 219.00
C 126.01 216.20 116.62 220.43 110.00 219.00 C 103.38 217.57 94.78 220.01 88.00 219.00 C 81.22 217.99 72.92 220.70 67.00 218.00
C 59.86 214.74 58.20 203.83 53.69 197.31 C 49.19 190.78 47.21 180.32 44.00 173.00
C 88.60 171.33 136.47 171.33 181.00 173.00
C 177.90 180.37 175.72 190.66 171.23 197.23 C 166.74 203.80 165.22 214.70 158.00 218.00
C 154.35 219.67 148.64 217.31 145.00 219.00
C 142.26 220.92 143.09 222.68 145.00 225.00
L 160.00 225.00
C 176.19 210.23 181.88 189.47 188.78 168.78 C 195.67 148.08 190.87 117.84 178.70 100.31 C 166.52 82.77 161.86 55.97 138.00 55.00
C 140.68 47.41 148.63 52.08 153.69 48.69 C 158.76 45.31 163.48 43.88 169.25 42.25 C 175.01 40.61 174.93 29.99 172.25 26.75 C 169.56 23.52 160.61 16.62 157.10 24.10 C 153.60 31.58 166.14 23.40 167.77 31.23 C 169.39 39.06 159.72 34.95 155.77 38.77 C 151.82 42.60 146.01 43.81 140.78 43.78 C 135.54 43.76 133.30 53.65 128.00 54.00
C 130.47 46.25 133.32 43.45 125.77 38.23 C 118.22 33.01 129.26 26.03 133.07 26.93 C 136.89 27.83 149.21 23.86 148.97 18.97 C 148.73 14.08 137.59 19.58 133.75 20.19 C 129.92 20.80 119.02 21.00 118.08 28.08 C 117.14 35.16 116.91 40.98 124.00 44.00
C 123.92 47.91 121.57 51.19 121.00 55.00
C 108.15 59.11 106.17 48.09 103.00 39.00
C 113.54 28.74 103.30 7.56 88.00 11.00
C 86.86 5.08 80.64 2.11 76.00 0.00
L 69.00 0.00
C 60.74 2.90 57.71 9.87 50.25 14.25 C 42.78 18.63 42.09 30.66 46.70 37.30 C 51.30 43.95 61.33 47.43 69.00 43.00
C 71.34 46.68 75.80 48.68 80.00 49.00
M 101.00 53.00 
C 94.27 51.70 93.13 40.61 85.00 43.00 C 76.86 45.39 74.02 34.12 66.78 36.78 C 59.54 39.44 52.78 38.34 50.08 29.92 C 47.37 21.51 57.73 19.07 61.25 15.25 C 64.76 11.42 70.55 1.87 76.68 7.32 C 82.80 12.77 84.79 17.22 93.00 17.00 C 101.21 16.78 103.19 28.58 99.23 33.23 C 95.27 37.88 99.39 47.52 101.00 53.00
M 162.00 85.00 
C 129.00 85.00 96.00 85.00 63.00 85.00
C 69.75 74.13 72.81 60.45 88.00 61.00 C 103.19 61.55 121.81 61.55 137.00 61.00 C 152.19 60.45 155.24 74.12 162.00 85.00
M 95.00 149.00 
C 92.37 149.24 89.61 148.63 87.00 149.00
C 79.16 151.12 76.85 157.72 78.00 166.00
C 66.00 166.00 54.00 166.00 42.00 166.00
C 41.17 157.53 37.16 144.82 39.33 136.33 C 41.50 127.84 43.13 118.71 47.77 111.77 C 52.41 104.83 51.97 93.90 61.01 92.01 C 70.04 90.12 85.39 93.41 95.00 92.00
C 98.41 94.38 95.54 105.37 96.00 110.00 C 96.46 114.63 96.53 125.15 96.00 130.00 C 95.47 134.85 98.33 145.80 95.00 149.00
M 129.00 101.00 
C 130.20 98.41 127.34 93.86 130.00 92.00
C 134.83 88.62 146.07 93.74 152.00 92.00 C 157.93 90.26 166.78 91.30 169.30 96.70 C 171.83 102.09 174.52 105.62 176.92 111.08 C 179.33 116.53 181.18 121.17 182.98 127.02 C 184.77 132.88 186.74 139.29 186.00 146.00 C 185.26 152.71 184.18 159.37 183.00 166.00
C 171.00 166.00 159.00 166.00 147.00 166.00
C 147.76 159.15 146.33 149.38 138.00 149.00
C 135.39 148.63 132.63 149.24 130.00 149.00
C 126.22 145.36 130.73 136.97 129.00 132.00 C 127.27 127.03 131.28 117.85 129.00 113.00
C 124.35 106.53 121.35 120.88 123.00 126.00 C 124.65 131.12 121.76 143.24 123.00 149.00
C 116.00 149.00 109.00 149.00 102.00 149.00
C 102.00 130.00 102.00 111.00 102.00 92.00
C 109.00 92.00 116.00 92.00 123.00 92.00
C 121.66 96.06 123.89 107.03 129.00 101.00
M 140.00 166.00 
C 121.67 166.00 103.33 166.00 85.00 166.00
C 80.69 150.20 101.99 154.82 112.00 155.00 C 122.01 155.18 144.35 149.72 140.00 166.00 Z"/>
</g>
<g fill="#FDFDFD" fill-opacity="1.00" stroke="None">
<path d="
M 160.00 225.00 
L 225.00 225.00
L 225.00 0.00
L 76.00 0.00
C 80.64 2.11 86.86 5.08 88.00 11.00
C 103.30 7.56 113.54 28.74 103.00 39.00
C 106.17 48.09 108.15 59.11 121.00 55.00
C 121.57 51.19 123.92 47.91 124.00 44.00
C 116.91 40.98 117.14 35.16 118.08 28.08 C 119.02 21.00 129.92 20.80 133.75 20.19 C 137.59 19.58 148.73 14.08 148.97 18.97 C 149.21 23.86 136.89 27.83 133.07 26.93 C 129.26 26.03 118.22 33.01 125.77 38.23 C 133.32 43.45 130.47 46.25 128.00 54.00
C 133.30 53.65 135.54 43.76 140.78 43.78 C 146.01 43.81 151.82 42.60 155.77 38.77 C 159.72 34.95 169.39 39.06 167.77 31.23 C 166.14 23.40 153.60 31.58 157.10 24.10 C 160.61 16.62 169.56 23.52 172.25 26.75 C 174.93 29.99 175.01 40.61 169.25 42.25 C 163.48 43.88 158.76 45.31 153.69 48.69 C 148.63 52.08 140.68 47.41 138.00 55.00
C 161.86 55.97 166.52 82.77 178.70 100.31 C 190.87 117.84 195.67 148.08 188.78 168.78 C 181.88 189.47 176.19 210.23 160.00 225.00 Z"/>
</g>
<g fill="#F9F9F9" fill-opacity="1.00" stroke="None">
<path d="
M 101.00 53.00 
C 99.39 47.52 95.27 37.88 99.23 33.23 C 103.19 28.58 101.21 16.78 93.00 17.00 C 84.79 17.22 82.80 12.77 76.68 7.32 C 70.55 1.87 64.76 11.42 61.25 15.25 C 57.73 19.07 47.37 21.51 50.08 29.92 C 52.78 38.34 59.54 39.44 66.78 36.78 C 74.02 34.12 76.86 45.39 85.00 43.00 C 93.13 40.61 94.27 51.70 101.00 53.00 Z"/>
</g>
<g fill="#7E7E7E" fill-opacity="1.00" stroke="None">
<path d="
M 85.00 49.00 
C 83.39 48.73 81.63 49.13 80.00 49.00
C 81.24 49.26 84.19 48.89 85.00 49.00 Z"/>
</g>
<g fill="#FCFCFC" fill-opacity="1.00" stroke="None">
<path d="
M 162.00 85.00 
C 155.24 74.12 152.19 60.45 137.00 61.00 C 121.81 61.55 103.19 61.55 88.00 61.00 C 72.81 60.45 69.75 74.13 63.00 85.00
C 96.00 85.00 129.00 85.00 162.00 85.00 Z"/>
</g>
<g fill="#FDFDFD" fill-opacity="1.00" stroke="None">
<path d="
M 87.00 149.00 
C 89.34 148.37 92.02 147.73 95.00 148.00
C 95.00 129.33 95.00 110.67 95.00 92.00
C 85.39 93.41 70.04 90.12 61.01 92.01 C 51.97 93.90 52.41 104.83 47.77 111.77 C 43.13 118.71 41.50 127.84 39.33 136.33 C 37.16 144.82 41.17 157.53 42.00 166.00
C 54.00 166.00 66.00 166.00 78.00 166.00
C 76.85 157.72 79.16 151.12 87.00 149.00 Z"/>
</g>
<g fill="#656565" fill-opacity="1.00" stroke="None">
<path d="
M 95.00 148.00 
C 95.00 148.50 95.00 149.00 95.00 149.00
C 98.33 145.80 95.47 134.85 96.00 130.00 C 96.53 125.15 96.46 114.63 96.00 110.00 C 95.54 105.37 98.41 94.38 95.00 92.00
C 95.00 110.67 95.00 129.33 95.00 148.00 Z"/>
</g>
<g fill="#FDFDFD" fill-opacity="1.00" stroke="None">
<path d="
M 129.00 113.00 
C 131.94 117.09 129.45 124.68 130.00 130.00 C 130.55 135.32 130.00 142.51 130.00 148.00
C 133.02 147.73 135.68 148.37 138.00 149.00
C 146.33 149.38 147.76 159.15 147.00 166.00
C 159.00 166.00 171.00 166.00 183.00 166.00
C 184.18 159.37 185.26 152.71 186.00 146.00 C 186.74 139.29 184.77 132.88 182.98 127.02 C 181.18 121.17 179.33 116.53 176.92 111.08 C 174.52 105.62 171.83 102.09 169.30 96.70 C 166.78 91.30 157.93 90.26 152.00 92.00 C 146.07 93.74 134.83 88.62 130.00 92.00
C 129.82 95.13 130.69 98.60 129.00 101.00
C 123.89 107.03 121.66 96.06 123.00 92.00
C 116.00 92.00 109.00 92.00 102.00 92.00
C 102.00 111.00 102.00 130.00 102.00 149.00
C 109.00 149.00 116.00 149.00 123.00 149.00
C 121.76 143.24 124.65 131.12 123.00 126.00 C 121.35 120.88 124.35 106.53 129.00 113.00 Z"/>
</g>
<g fill="#696969" fill-opacity="1.00" stroke="None">
<path d="
M 129.00 101.00 
C 130.69 98.60 129.82 95.13 130.00 92.00
C 127.34 93.86 130.20 98.41 129.00 101.00 Z"/>
</g>
<g fill="#666666" fill-opacity="1.00" stroke="None">
<path d="
M 130.00 149.00 
C 129.96 149.00 130.00 148.00 130.00 148.00
C 130.00 142.51 130.55 135.32 130.00 130.00 C 129.45 124.68 131.94 117.09 129.00 113.00
C 131.28 117.85 127.27 127.03 129.00 132.00 C 130.73 136.97 126.22 145.36 130.00 149.00 Z"/>
</g>
<g fill="#BFBFBF" fill-opacity="1.00" stroke="None">
<path d="
M 87.00 149.00 
C 89.61 148.63 92.37 149.24 95.00 149.00
C 95.00 149.00 95.00 148.50 95.00 148.00
C 92.02 147.73 89.34 148.37 87.00 149.00 Z"/>
</g>
<g fill="#BFBFBF" fill-opacity="1.00" stroke="None">
<path d="
M 130.00 149.00 
C 132.63 149.24 135.39 148.63 138.00 149.00
C 135.68 148.37 133.02 147.73 130.00 148.00
C 130.00 148.00 129.96 149.00 130.00 149.00 Z"/>
</g>
<g fill="#FAFAFA" fill-opacity="1.00" stroke="None">
<path d="
M 140.00 166.00 
C 144.35 149.72 122.01 155.18 112.00 155.00 C 101.99 154.82 80.69 150.20 85.00 166.00
C 103.33 166.00 121.67 166.00 140.00 166.00 Z"/>
</g>
<g fill="#656565" fill-opacity="1.00" stroke="None">
<path d="
M 44.00 173.00 
C 89.67 173.00 135.33 173.00 181.00 173.00
C 136.47 171.33 88.60 171.33 44.00 173.00 Z"/>
</g>
<g fill="#FCFCFC" fill-opacity="1.00" stroke="None">
<path d="
M 67.00 218.00 
C 76.63 220.80 90.47 215.46 100.00 218.00 C 109.53 220.54 124.23 213.58 132.00 219.00
C 134.04 220.42 135.02 222.17 133.00 225.00
L 145.00 225.00
C 143.09 222.68 142.26 220.92 145.00 219.00
C 148.52 216.53 153.87 219.20 158.00 218.00
C 165.22 214.70 166.74 203.80 171.23 197.23 C 175.72 190.66 177.90 180.37 181.00 173.00
C 135.33 173.00 89.67 173.00 44.00 173.00
C 47.21 180.32 49.19 190.78 53.69 197.31 C 58.20 203.83 59.86 214.74 67.00 218.00
M 117.00 179.00 
C 137.51 184.08 126.97 219.72 106.33 211.67 C 85.69 203.62 96.13 173.83 117.00 179.00
M 80.00 191.00 
C 85.51 193.52 80.59 203.67 74.93 200.07 C 69.26 196.48 74.65 188.55 80.00 191.00
M 149.00 191.00 
C 153.91 193.34 149.68 203.48 143.93 200.07 C 138.18 196.66 143.02 188.15 149.00 191.00 Z"/>
</g>
<g fill="#000000" fill-opacity="1.00" stroke="None">
<path d="
M 117.00 179.00 
C 96.13 173.83 85.69 203.62 106.33 211.67 C 126.97 219.72 137.51 184.08 117.00 179.00
M 115.00 185.00 
C 127.67 188.40 121.38 210.49 108.33 205.67 C 95.27 200.85 102.14 181.55 115.00 185.00 Z"/>
</g>
<g fill="#F8F8F8" fill-opacity="1.00" stroke="None">
<path d="
M 115.00 185.00 
C 102.14 181.55 95.27 200.85 108.33 205.67 C 121.38 210.49 127.67 188.40 115.00 185.00 Z"/>
</g>
<g fill="#000000" fill-opacity="1.00" stroke="None">
<path d="
M 80.00 191.00 
C 74.65 188.55 69.26 196.48 74.93 200.07 C 80.59 203.67 85.51 193.52 80.00 191.00 Z"/>
</g>
<g fill="#000000" fill-opacity="1.00" stroke="None">
<path d="
M 149.00 191.00 
C 143.02 188.15 138.18 196.66 143.93 200.07 C 149.68 203.48 153.91 193.34 149.00 191.00 Z"/>
</g>
<g fill="#8E8E8E" fill-opacity="1.00" stroke="None">
<path d="
M 132.00 219.00 
C 124.23 213.58 109.53 220.54 100.00 218.00 C 90.47 215.46 76.63 220.80 67.00 218.00
C 72.92 220.70 81.22 217.99 88.00 219.00 C 94.78 220.01 103.38 217.57 110.00 219.00 C 116.62 220.43 126.01 216.20 132.00 219.00 Z"/>
</g>
<g fill="#8E8E8E" fill-opacity="1.00" stroke="None">
<path d="
M 145.00 219.00 
C 148.64 217.31 154.35 219.67 158.00 218.00
C 153.87 219.20 148.52 216.53 145.00 219.00 Z"/>
</g>
</svg>